<svg width="138" height="170" viewBox="0 0 138 170" fill="none" xmlns="http://www.w3.org/2000/svg">
<path d="M33.594 96.9306C31.8151 98.2635 30.2065 96.5639 29.0139 95.2474C25.2152 91.0611 22.6382 85.7302 19.8507 80.8589C19.257 79.8232 18.6795 78.7817 18.1146 77.7292C17.2544 76.1491 16.4222 74.5514 15.5934 72.9521C13.7417 73.8746 11.8873 74.7842 10.0239 75.6782C10.3019 76.214 10.5798 76.7499 10.8602 77.284C10.8947 77.3451 10.9268 77.4079 10.9591 77.4711C11.4798 78.4721 12.0073 79.4667 12.5417 80.4553C13.213 81.7049 13.9022 82.9465 14.607 84.1777C17.3296 88.8988 19.941 93.6502 23.2743 97.9789C26.3803 102.016 31.1495 105.4 36.2488 102.568C40.9292 99.9707 42.4706 93.8119 43.14 88.9117C43.2701 87.9557 43.5061 86.293 43.5559 85.9167L38.1549 79.3335C38.0093 82.461 37.3081 87.1857 36.6237 90.2003C36.1252 92.3879 35.5078 95.5003 33.594 96.9306Z" fill="#222124"/>
<path d="M8.29136 62.6561C8.29136 62.6561 2.24712 51.4335 6.24565 50.393C9.34916 49.5835 13.4378 61.1781 13.4378 61.1781C13.4378 61.1781 21.9274 60.8005 19.0605 71.5351C18.9331 72.0098 20.9496 71.5353 21.3825 73.0475C22.3306 76.3608 13.8822 80.4318 11.3818 80.727C9.41098 80.9599 8.07001 78.375 9.67629 77.5756L9.71406 77.5711C9.71406 77.5711 6.09247 78.2547 4.49014 74.7841C4.49014 74.7841 -3.63671 69.8177 2.36699 65.8984C2.22464 65.5254 1.92429 64.5734 2.23201 63.4497C2.29263 63.2161 2.83647 61.3349 4.53668 60.89C5.89585 60.5349 7.45834 61.2363 8.29136 62.6561Z" fill="#FEFEFE"/>
<path d="M9.45903 77.9078C9.14031 78.1975 9.03676 78.6318 9.18221 79.1234C9.42468 79.9338 10.3051 80.699 11.3632 80.5728C13.2242 80.3531 18.9409 77.824 20.7703 75.076C21.2482 74.357 21.4029 73.6895 21.2322 73.0902C20.9875 72.2304 20.1753 72.0829 19.5833 71.9743C19.266 71.916 19.0376 71.8729 18.942 71.7193C18.9131 71.673 18.881 71.599 18.91 71.4952C19.8753 67.8795 19.6495 65.1567 18.2393 63.4026C16.4905 61.2229 13.4754 61.3306 13.4431 61.334L13.3286 61.3386L13.2912 61.2296C12.1669 58.0419 8.71634 49.9089 6.28494 50.5425C5.79674 50.6691 5.46085 50.9583 5.25719 51.4266C4.00191 54.3074 8.38303 62.5 8.4275 62.5828L8.15687 62.7356C7.36712 61.3926 5.89582 60.6945 4.5758 61.0393C3.00713 61.4497 2.47274 63.1523 2.3776 63.4932C2.1183 64.4524 2.30634 65.3018 2.51069 65.8446L2.55636 65.9593L2.4511 66.0277C1.01448 66.9675 0.294455 68.0414 0.309909 69.2241C0.354213 72.0415 4.53012 74.6249 4.57065 74.6513L4.61032 74.6765L4.63144 74.7181C6.0526 77.8007 9.15388 77.4938 9.62526 77.4273L9.69514 77.4165L9.74477 77.715C9.74426 77.7145 9.74168 77.7165 9.74134 77.7162L9.74288 77.7224C9.7403 77.7242 9.73292 77.7253 9.72125 77.726C9.62216 77.7783 9.53476 77.8389 9.45903 77.9078ZM19.8363 76.5909C17.3587 78.844 12.9954 80.6912 11.3998 80.8803C10.1791 81.0258 9.16452 80.145 8.88599 79.2122C8.71874 78.6553 8.82366 78.1398 9.15406 77.7747C8.04045 77.8032 5.61437 77.5402 4.36991 74.8909C3.90317 74.5989 0.0440892 72.0964 0.0003004 69.2292C-0.0170434 67.9614 0.716715 66.8198 2.17995 65.8353C1.97783 65.2491 1.81521 64.3855 2.08121 63.4096C2.17978 63.0433 2.76724 61.1908 4.49698 60.7398C5.54225 60.4656 6.66805 60.7787 7.53833 61.5179C6.34538 59.0827 3.9473 53.6565 4.97539 51.3007C5.21426 50.75 5.62931 50.393 6.20887 50.241C9.28456 49.4396 13.0993 59.7792 13.546 61.0208C14.1415 61.0172 16.8135 61.1278 18.4812 63.2085C19.9586 65.0416 20.2005 67.8592 19.2081 71.5763C19.2427 71.5947 19.4716 71.6383 19.6404 71.669C20.2338 71.7793 21.2315 71.9613 21.5298 73.0057C21.7264 73.6965 21.5576 74.4504 21.0279 75.2477C20.7248 75.7038 20.3159 76.1549 19.8363 76.5909Z" fill="#222124"/>
<path d="M2.36694 65.8985C3.15291 67.4721 4.38981 69.2192 6.05413 69.9257C6.9658 70.3112 7.93688 70.2509 8.79909 69.7658C9.88557 69.1545 10.7543 68.2552 10.5457 66.946C10.2515 65.1118 8.89628 63.3069 7.69475 61.9517L2.36694 65.8985Z" fill="#FEFEFE"/>
<path d="M9.81218 69.2387C9.55425 69.4732 9.24069 69.6949 8.8763 69.8994C7.96738 70.4107 6.94341 70.4709 5.99414 70.0674C4.19176 69.3058 2.95176 67.4172 2.22778 65.9672L2.50493 65.8293C3.2059 67.2314 4.40039 69.0566 6.11571 69.7815C6.97449 70.1467 7.90179 70.0918 8.72347 69.6299C9.99661 68.9138 10.5597 68.0174 10.3921 66.9711C10.1628 65.5425 9.24224 63.9345 7.57981 62.0532L7.81163 61.8481C9.51459 63.774 10.4597 65.4332 10.6989 66.9211C10.8401 67.7979 10.5399 68.5769 9.81218 69.2387Z" fill="#222124"/>
<path d="M4.1687 74.5636C4.40774 74.6241 5.33126 74.7275 6.15157 74.3904C6.35609 74.3062 7.03627 73.9997 7.46952 73.2831C8.29155 71.9205 7.44101 70.3493 7.40066 70.2808L4.1687 74.5636Z" fill="#FEFEFE"/>
<path d="M7.09704 73.9752C6.77146 74.2712 6.43008 74.4438 6.21045 74.5339C5.32591 74.8975 4.34556 74.7678 4.13159 74.7129L4.20698 74.413C4.38815 74.4601 5.29637 74.5743 6.09282 74.2479C6.33683 74.1477 6.94919 73.845 7.33487 73.2048C8.11895 71.9063 7.27288 70.3733 7.26635 70.3563L7.53476 70.2061C7.5746 70.2741 8.47562 71.9138 7.60138 73.3642C7.45233 73.6103 7.2782 73.8103 7.09704 73.9752Z" fill="#222124"/>
<path d="M13.4374 61.1777C12.3719 61.3859 11.3196 61.6912 10.303 62.0647C8.23807 62.8251 4.74303 64.1288 5.56334 66.9094C6.36871 69.6352 10.5444 68.4262 13.3495 67.4097C13.3495 67.4097 9.60909 69.1988 11.5787 73.3936L13.4374 61.1777Z" fill="#FEFEFE"/>
<path d="M11.7179 73.3288L11.437 73.4605C10.091 70.5909 11.3501 68.7893 12.3521 67.9204C10.381 68.5663 8.01645 69.1084 6.58241 68.3836C6.00217 68.0894 5.6091 67.6086 5.4166 66.9516C4.54941 64.0176 8.2572 62.6522 10.2474 61.9212C11.3152 61.5266 12.377 61.2269 13.4059 61.0269L13.4665 61.3308C12.4525 61.5279 11.4059 61.8247 10.3563 62.2102C8.32709 62.9568 4.92633 64.2094 5.71213 66.865C5.88248 67.4444 6.21492 67.8488 6.72253 68.1067C8.31679 68.9109 11.2374 68.0116 13.2964 67.2641L13.4159 67.5504C13.2687 67.6209 9.83944 69.3263 11.7179 73.3288Z" fill="#222124"/>
<path d="M9.48389 77.6176C9.48389 77.6176 10.7033 77.8022 12.8446 76.8052L9.48389 77.6176Z" fill="#FEFEFE"/>
<path d="M12.9109 76.9449C10.7509 77.951 9.5124 77.7774 9.46191 77.7683L9.50725 77.4633C9.52047 77.4637 10.7151 77.626 12.7813 76.6626L12.9109 76.9449Z" fill="#222124"/>
<path d="M16.5513 74.5525C16.5513 74.5525 17.9992 73.7964 19.0605 71.5352L16.5513 74.5525Z" fill="#FEFEFE"/>
<path d="M17.411 74.1033C16.9699 74.5043 16.6503 74.6757 16.6233 74.6898L16.4792 74.4152C16.4942 74.4073 17.8946 73.6521 18.9182 71.4707L19.1998 71.6012C18.6199 72.8374 17.9315 73.6299 17.411 74.1033Z" fill="#222124"/>
<path d="M42.5633 138.692C42.7045 138.345 42.8863 138.013 43.1149 137.708L44.6626 134.946L51.0839 138.611C55.6777 141.048 60.7269 142.599 65.6675 144.102C70.8954 145.692 78.2665 147.339 81.2838 140.399C83.1683 136.064 81.5793 124.645 79.7445 119.795L87.0126 116.448C88.9996 123.204 89.8034 140.484 85.4225 146.422C80.6907 152.835 73.5241 153.568 66.8658 151.918C59.9406 150.202 52.87 147.94 46.6116 144.357C47.4611 150.035 46.5548 159.113 31.6587 158.149L42.5633 138.692Z" fill="#222124"/>
<path d="M44.7245 135.169L43.2569 137.788C43.0334 138.087 42.8549 138.406 42.7143 138.753L42.7055 138.771L31.9277 158.001C37.6532 158.333 41.7751 157.174 44.1818 154.556C46.8771 151.623 46.9029 147.405 46.4501 144.381L46.4005 144.048L46.6924 144.216C52.0223 147.267 58.4455 149.664 66.9049 151.76C76.9506 154.249 82.4486 150.178 85.2909 146.325C89.5239 140.588 88.8633 123.578 86.9086 116.675L79.9497 119.88C81.8612 125.067 83.2772 136.222 81.4332 140.464C78.5217 147.16 71.8057 146.139 65.6198 144.258C60.962 142.841 55.6821 141.234 51.0072 138.754L44.7245 135.169ZM31.3896 158.295L42.416 138.621C42.5668 138.252 42.7579 137.912 42.9842 137.61L44.6003 134.724L51.164 138.469C55.8068 140.932 61.0701 142.533 65.7153 143.946C71.7631 145.786 78.3253 146.795 81.1339 140.334C81.9723 138.406 82.1898 134.844 81.747 130.305C81.3661 126.409 80.5202 122.306 79.592 119.853L79.5383 119.71L87.1158 116.22L87.1689 116.401C89.2318 123.415 89.9533 140.555 85.5535 146.519C82.6514 150.452 77.0471 154.608 66.8265 152.076C58.4889 150.011 52.1189 147.651 46.8193 144.663C47.2302 147.728 47.1059 151.858 44.4224 154.774C41.9099 157.508 37.6121 158.697 31.6486 158.31L31.3896 158.295Z" fill="#222124"/>
<path d="M51.7627 146.97C52.7723 144.784 53.7628 142.551 54.6111 140.283C53.6323 139.849 52.0288 139.112 51.0839 138.61L44.6626 134.946L43.1149 137.708C42.8863 138.012 42.7045 138.344 42.5633 138.691L31.6587 158.148C46.5548 159.113 47.4611 150.034 46.6116 144.356C48.1226 145.222 50.1704 146.248 51.7627 146.97Z" fill="#119DA4"/>
<path d="M44.7245 135.169L43.2569 137.788C43.0334 138.087 42.8549 138.407 42.7143 138.753L31.9277 158.002C37.6532 158.333 41.7751 157.174 44.1818 154.557C46.8771 151.623 46.9029 147.405 46.4501 144.381L46.4005 144.049L46.6924 144.216C48.067 145.002 50.0088 145.991 51.6828 146.755C52.5501 144.874 53.5398 142.663 54.4045 140.37C53.3553 139.902 51.8898 139.223 51.0072 138.755L44.7245 135.169ZM31.3896 158.296L42.421 138.612C42.5633 138.258 42.756 137.915 42.9842 137.61L44.6003 134.724L51.1643 138.469C52.0753 138.952 53.627 139.668 54.6772 140.134L54.8175 140.196L54.7638 140.34C53.86 142.756 52.8146 145.082 51.9105 147.039L51.843 147.186L51.6955 147.119C50.0942 146.393 48.2195 145.448 46.8195 144.662C47.2299 147.728 47.1072 151.855 44.4224 154.775C41.9099 157.508 37.6121 158.697 31.6486 158.31L31.3896 158.296Z" fill="#222124"/>
<path d="M50.2217 146.132L49.9277 145.991L52.1246 141.396L52.4184 141.537L50.2217 146.132Z" fill="#222124"/>
<path d="M48.1347 145.018L47.8376 144.884L50.0595 139.969L50.3568 140.103L48.1347 145.018Z" fill="#222124"/>
<path d="M52.0601 113.76C57.8486 127.645 60.6856 147.52 61.0436 163.07C61.0553 163.551 61.2109 169.83 61.2109 169.83L86.341 168.755C80.2616 154.418 72.0796 159.168 67.8321 163.145C67.847 162.985 67.8718 162.828 67.8685 162.655C67.5409 148.467 63.7946 127.839 59.3273 114.897L52.0601 113.76Z" fill="#222124"/>
<path d="M52.3215 113.966C58.3742 128.656 60.8811 148.93 61.2065 163.066C61.2163 163.502 61.3455 168.661 61.3697 169.659L86.0983 168.602C83.7633 163.188 80.9146 160.09 77.6213 159.393C73.8847 158.602 70.2956 161.062 67.943 163.264L67.6282 163.558L67.6813 163.015C67.6942 162.896 67.7077 162.78 67.7052 162.659C67.3816 148.647 63.7303 128.2 59.2053 115.042L52.3215 113.966ZM61.0522 170L61.0482 169.834C61.0482 169.834 60.8923 163.555 60.8803 163.073C60.554 148.882 58.0249 128.492 51.9094 113.823L51.7976 113.554L59.4493 114.75L59.4809 114.843C64.0307 128.024 67.7057 148.578 68.0311 162.651C68.0314 162.682 68.0309 162.713 68.03 162.74C70.4396 160.564 73.9773 158.288 77.6888 159.074C81.1375 159.804 84.094 163.041 86.4906 168.692L86.5828 168.908L86.3482 168.916L61.0522 170Z" fill="#222124"/>
<path d="M67.832 163.145C67.8469 162.985 67.8717 162.829 67.8684 162.655C67.8421 161.529 67.7585 159.82 67.7082 158.7C65.3851 158.89 62.4925 159.241 60.9829 159.22C61.0258 160.224 61.0205 162.062 61.0435 163.07C61.0552 163.552 61.2108 169.83 61.2108 169.83L86.3409 168.756C80.2615 154.418 72.0795 159.168 67.832 163.145Z" fill="#119DA4"/>
<path d="M61.1523 159.383C61.1732 159.988 61.1806 160.809 61.1878 161.605C61.1933 162.15 61.198 162.671 61.2065 163.066C61.2163 163.502 61.3455 168.661 61.3697 169.659L86.0983 168.602C83.7633 163.188 80.9146 160.091 77.6213 159.393C73.8847 158.602 70.2956 161.062 67.943 163.265L67.6282 163.558L67.6813 163.016C67.6942 162.896 67.7077 162.78 67.7052 162.659C67.6823 161.72 67.6213 160.376 67.5722 159.297L67.5535 158.875C66.8828 158.932 66.1688 159.002 65.4584 159.069C63.7894 159.228 62.2066 159.382 61.1523 159.383ZM61.0522 170L61.0482 169.834C61.0482 169.834 60.8923 163.555 60.8803 163.073C60.8712 162.678 60.8667 162.158 60.8612 161.609C60.8537 160.737 60.8458 159.837 60.8198 159.227L60.8118 159.055L60.984 159.058C62.0179 159.071 63.7508 158.906 65.4266 158.746C66.1986 158.671 66.9748 158.595 67.6948 158.537L67.8628 158.524L67.8977 159.282C67.9468 160.364 68.0084 161.709 68.0311 162.651C68.0311 162.682 68.0309 162.713 68.03 162.74C70.4396 160.564 73.9773 158.289 77.6888 159.074C81.1344 159.805 84.0947 163.038 86.4906 168.692L86.5828 168.909L86.3482 168.916L61.0522 170Z" fill="#222124"/>
<path d="M64.2785 160.912L64.2466 160.589L67.6819 160.251L67.7134 160.575L64.2785 160.912Z" fill="#222124"/>
<path d="M64.4048 162.849L64.373 162.525L67.8082 162.188L67.8399 162.512L64.4048 162.849Z" fill="#222124"/>
<path d="M71.4489 99.8054C62.1727 99.3837 54.9804 91.8783 55.3834 83.0408C55.7832 74.2027 63.6293 67.3809 72.9055 67.8021C82.1781 68.2232 89.3738 75.73 88.9708 84.5668C88.5678 93.404 80.7249 100.227 71.4489 99.8054ZM103.156 35.2667C87.3706 22.1306 64.6642 20.6737 47.5057 31.9583C8.91282 57.3423 48.4701 112.247 64.2739 131.531C67.4123 135.358 73.1582 135.67 76.7108 132.225C131.55 79.0045 120.898 50.0318 103.156 35.2667Z" fill="#CA73AE"/>
<path d="M71.4489 99.8054C62.1727 99.3837 54.9804 91.8783 55.3834 83.0408C55.7832 74.2027 63.6293 67.3809 72.9055 67.8021C82.1781 68.2232 89.3738 75.73 88.9708 84.5668C88.5678 93.404 80.7249 100.227 71.4489 99.8054ZM103.156 35.2667C87.3706 22.1306 64.6642 20.6737 47.5057 31.9583C8.91282 57.3423 48.4701 112.247 64.2739 131.531C67.4123 135.358 73.1582 135.67 76.7108 132.225C131.55 79.0045 120.898 50.0318 103.156 35.2667Z" fill="#87ADCF" stroke="#222124" stroke-width="0.739276" stroke-miterlimit="10"/>
<path d="M81.683 47.7374C82.5153 41.0209 85.4157 35.4437 88.9037 33.0384C90.2651 32.1031 91.7127 31.6513 93.1696 31.8005C98.354 32.3323 101.617 40.33 100.459 49.6627C99.2973 58.9944 94.1535 66.1296 88.9693 65.5981C87.5904 65.4574 86.3478 64.7889 85.2917 63.7122C82.3645 60.727 80.8302 54.5942 81.683 47.7374Z" fill="#FEFEFE"/>
<path d="M81.683 47.7374C82.5153 41.0209 85.4157 35.4437 88.9037 33.0384C90.2651 32.1031 91.7127 31.6513 93.1696 31.8005C98.354 32.3323 101.617 40.33 100.459 49.6627C99.2973 58.9944 94.1535 66.1296 88.9693 65.5981C87.5904 65.4574 86.3478 64.7889 85.2917 63.7122C82.3645 60.727 80.8302 54.5942 81.683 47.7374Z" stroke="#222124" stroke-width="0.739276" stroke-miterlimit="10"/>
<path d="M85.2917 63.7124C90.2517 63.6868 94.9462 57.4252 95.9585 49.2962C95.9892 49.0289 96.0194 48.7637 96.0423 48.4988L88.2377 47.284L96.0881 44.5332C95.6528 38.4512 92.8572 33.7392 88.9037 33.0386C85.4157 35.4439 82.5153 41.021 81.683 47.7375C80.8302 54.5943 82.3645 60.7272 85.2917 63.7124Z" fill="#222124"/>
<path d="M85.2917 63.7124C90.2517 63.6868 94.9462 57.4252 95.9585 49.2962C95.9892 49.0289 96.0194 48.7637 96.0423 48.4988L88.2377 47.284L96.0881 44.5332C95.6528 38.4512 92.8572 33.7392 88.9037 33.0386C85.4157 35.4439 82.5153 41.021 81.683 47.7375C80.8302 54.5943 82.3645 60.7272 85.2917 63.7124Z" stroke="#222124" stroke-width="0.739276" stroke-miterlimit="10"/>
<path d="M46.0219 43.3398C46.9495 36.6204 49.9253 31.019 53.45 28.5833C54.8253 27.6359 56.2767 27.1701 57.7332 27.3059C62.9151 27.7895 66.0706 35.7522 64.7834 45.0898C63.4998 54.428 58.2539 61.6073 53.0753 61.1249C51.6973 60.9958 50.4626 60.3397 49.422 59.274C46.5314 56.3176 45.0767 50.2013 46.0219 43.3398Z" fill="#FEFEFE"/>
<path d="M46.0219 43.3398C46.9495 36.6204 49.9253 31.019 53.45 28.5833C54.8253 27.6359 56.2767 27.1701 57.7332 27.3059C62.9151 27.7895 66.0706 35.7522 64.7834 45.0898C63.4998 54.428 58.2539 61.6073 53.0753 61.1249C51.6973 60.9958 50.4626 60.3397 49.422 59.274C46.5314 56.3176 45.0767 50.2013 46.0219 43.3398Z" stroke="#222124" stroke-width="0.739276" stroke-miterlimit="10"/>
<path d="M49.422 59.2746C54.3828 59.2022 59.1673 52.9012 60.2871 44.7661C60.3249 44.4994 60.3587 44.2345 60.3851 43.9697L52.5914 42.8275L60.4852 40.0057C60.1317 33.931 57.3984 29.2475 53.45 28.584C49.9253 31.0197 46.9495 36.621 46.0219 43.3405C45.0767 50.2019 46.5314 56.3183 49.422 59.2746Z" fill="#222124"/>
<path d="M49.422 59.2746C54.3828 59.2022 59.1673 52.9012 60.2871 44.7661C60.3249 44.4994 60.3587 44.2345 60.3851 43.9697L52.5914 42.8275L60.4852 40.0057C60.1317 33.931 57.3984 29.2475 53.45 28.584C49.9253 31.0197 46.9495 36.621 46.0219 43.3405C45.0767 50.2019 46.5314 56.3183 49.422 59.2746Z" stroke="#222124" stroke-width="0.739276" stroke-miterlimit="10"/>
<path d="M45.28 31.3296L49.1506 33.5053" stroke="#222124" stroke-width="0.739276" stroke-miterlimit="10"/>
<path d="M47.697 28.5298L50.6063 31.2529" stroke="#222124" stroke-width="0.739276" stroke-miterlimit="10"/>
<path d="M76.4339 51.6957C76.2012 53.6504 74.432 55.0477 72.4783 54.8159C70.5212 54.5831 69.1227 52.8099 69.3551 50.856C69.5912 48.9027 71.3604 47.5052 73.3141 47.7371C75.2714 47.9696 76.6666 49.7416 76.4339 51.6957Z" fill="#FFCF2B"/>
<path d="M76.4339 51.6957C76.2012 53.6504 74.432 55.0477 72.4783 54.8159C70.5212 54.5831 69.1227 52.8099 69.3551 50.856C69.5912 48.9027 71.3604 47.5052 73.3141 47.7371C75.2714 47.9696 76.6666 49.7416 76.4339 51.6957Z" fill="#AEECEF" stroke="#222124" stroke-width="0.739276" stroke-miterlimit="10"/>
<path d="M66.3374 54.1758C66.5751 55.0564 66.7597 60.4252 71.9848 61.1427C76.4209 61.7513 78.571 56.7509 79.0568 55.9352" stroke="#222124" stroke-width="0.739276" stroke-miterlimit="10"/>
<path d="M65.2651 52.2202C66.0236 53.0598 67.7178 55.1788 67.4066 57.808C67.0788 60.6052 64.6725 62.3183 63.7141 62.9263L65.2651 52.2202Z" fill="#6D9DC5"/>
<path d="M65.1325 52.0859C65.891 52.9253 67.5854 55.0445 67.2741 57.6737C66.9462 60.4707 64.5399 62.184 63.5815 62.7919" stroke="#222124" stroke-width="0.739276" stroke-miterlimit="10"/>
<path d="M79.9329 54.0312C79.0028 54.6714 76.8536 56.3337 76.5424 58.9629C76.211 61.7596 78.1475 63.9876 78.941 64.8038L79.9329 54.0312Z" fill="#6D9DC5"/>
<path d="M80.0479 54.4473C79.1178 55.0874 76.9686 56.7497 76.6574 59.3789C76.326 62.1756 78.2626 64.4036 79.056 65.2198" stroke="#222124" stroke-width="0.739276" stroke-miterlimit="10"/>
<path d="M122.987 102.782C118.949 104.855 114.096 105.061 109.655 104.995C106.863 104.952 104.098 104.685 101.331 104.367C100.268 104.248 99.2033 104.118 98.1371 103.995C93.6006 103.468 94.4444 96.429 98.9741 96.9553C101.268 97.2244 103.552 97.5057 105.846 97.703C107.388 97.8357 108.935 97.9302 110.489 97.9542C113.561 98.0013 117.365 97.6283 120.153 96.2808C120.219 96.2494 120.269 96.227 120.305 96.2133C120.315 96.2037 120.328 96.1946 120.349 96.1833C120.481 96.0952 120.615 96.0108 120.737 95.915C120.832 95.8438 121.369 95.3724 121.411 95.3662C121.599 95.1536 121.773 94.9275 121.943 94.7011C121.984 94.6529 122.019 94.5995 122.055 94.5437C122.09 94.4767 122.167 94.3316 122.188 94.2742C122.568 93.3016 122.676 93.3639 122.621 92.1902C122.567 91.1879 122.201 90.2666 121.77 89.373C120.733 87.2187 119.075 85.3621 117.487 83.6035C116.499 82.5155 115.493 81.4458 114.456 80.4095C115.401 77.737 116.107 75.1763 116.596 72.7241C117.751 73.768 118.88 74.8444 119.984 75.9607C123.977 80.0005 128.709 84.7815 129.572 90.6559C130.334 95.8577 127.537 100.445 122.987 102.782Z" fill="#222124"/>
<path d="M104.743 95.5382C104.743 95.5382 108.305 93.201 108.809 96.0392C109.195 98.2019 108.613 102.866 108.311 104.965C108.173 105.933 107.529 106.786 106.597 107.084C105.994 107.278 104.467 106.845 103.754 106.243C102.223 107.216 100.146 109.154 96.3501 109.306C93.5078 109.419 90.4908 108.878 87.9234 107.637C86.6041 106.999 85.4281 106.138 84.7239 104.822C84.3389 104.091 84.0753 103.241 84.1505 102.405C84.1859 101.99 84.3094 101.586 84.5364 101.233C84.6023 101.13 85.089 100.427 85.089 100.427C85.089 100.427 82.8297 96.6705 86.9475 95.2248C86.9475 95.2248 83.8737 89.0967 92.71 91.0356C93.2454 91.1534 93.9084 88.7916 96.0546 87.867C96.3734 87.7297 98.5993 86.8062 100.809 87.6713C103.434 88.699 105.149 91.9112 104.743 95.5382Z" fill="#FEFEFE"/>
<path d="M104.743 95.5382C104.743 95.5382 108.305 93.201 108.809 96.0392C109.195 98.2019 108.613 102.866 108.311 104.965C108.173 105.933 107.529 106.786 106.597 107.084C105.994 107.278 104.467 106.845 103.754 106.243C102.223 107.216 100.146 109.154 96.3501 109.306C93.5078 109.419 90.4908 108.878 87.9234 107.637C86.6041 106.999 85.4281 106.138 84.7239 104.822C84.3389 104.091 84.0753 103.241 84.1505 102.405C84.1859 101.99 84.3094 101.586 84.5364 101.233C84.6023 101.13 85.089 100.427 85.089 100.427C85.089 100.427 82.8297 96.6705 86.9475 95.2248C86.9475 95.2248 83.8737 89.0967 92.71 91.0356C93.2454 91.1534 93.9084 88.7916 96.0546 87.867C96.3734 87.7297 98.5993 86.8062 100.809 87.6713C103.434 88.699 105.149 91.9112 104.743 95.5382Z" stroke="#222124" stroke-width="0.739276" stroke-miterlimit="10"/>
<path d="M87.0325 95.2764L90.3549 96.3129" stroke="#222124" stroke-width="0.739276" stroke-miterlimit="10"/>
<path d="M85.0889 100.427L88.6256 101.22" stroke="#222124" stroke-width="0.739276" stroke-miterlimit="10"/>
<path d="M92.71 91.0352L97.5808 92.2915" stroke="#222124" stroke-width="0.739276" stroke-miterlimit="10"/>
<path d="M104.743 95.5381L104.462 99.0635" stroke="#222124" stroke-width="0.739276" stroke-miterlimit="10"/>
<path d="M103.91 103.667L103.754 106.243" stroke="#222124" stroke-width="0.739276" stroke-miterlimit="10"/>
<path d="M99.6319 0.607595L120.927 3.2193C123.34 3.51517 125.039 5.82861 124.705 8.36029L123.291 19.0482C122.956 21.5799 120.707 23.4094 118.294 23.1135L105.148 21.5009C104.821 22.2486 104.077 23.6836 102.577 24.8927C100.65 26.4458 98.6469 26.6838 97.8742 26.7332C98.2676 26.2967 99.2757 25.0615 99.4856 23.1971C99.6027 22.1608 99.4303 21.3101 99.2764 20.781C98.5173 20.6878 97.7583 20.5949 96.9991 20.5016C94.5867 20.2061 92.8865 17.8925 93.2219 15.3607L94.6364 4.67275C94.9714 2.14107 97.2194 0.311548 99.6319 0.607595Z" fill="#FEFEFE"/>
<path d="M99.115 0.698831C96.9622 0.698831 95.0619 2.39389 94.7585 4.68859L93.344 15.3765C93.1803 16.6117 93.5004 17.822 94.2454 18.7845C94.9376 19.6791 95.921 20.2453 97.0137 20.3794L99.3716 20.6686L99.3944 20.7466C99.6295 21.5545 99.7015 22.3834 99.6079 23.2109C99.4313 24.7775 98.6957 25.9334 98.1628 26.5849C99.1883 26.4783 100.889 26.0951 102.5 24.7966C103.868 23.6931 104.634 22.3686 105.035 21.4516L105.072 21.3675L118.309 22.9913C120.664 23.2789 122.84 21.5032 123.167 19.0319L124.581 8.34418C124.746 7.10917 124.426 5.89906 123.68 4.93656C122.988 4.0419 122.005 3.47556 120.912 3.3411L99.6168 0.72957C99.4487 0.708792 99.2811 0.698831 99.115 0.698831ZM97.58 26.8755L97.7823 26.6507C98.2902 26.0871 99.171 24.8873 99.363 23.1833C99.45 22.415 99.3884 21.645 99.1798 20.8932L96.984 20.6238C95.8252 20.4819 94.7835 19.8821 94.0508 18.9351C93.2652 17.92 92.9276 16.6452 93.0995 15.3442L94.5139 4.65648C94.8587 2.05164 97.1631 0.180227 99.6468 0.485203L120.942 3.09709C122.101 3.23893 123.143 3.83892 123.877 4.78596C124.66 5.80066 125 7.07603 124.827 8.3763L123.411 19.0644C123.066 21.6692 120.762 23.5406 118.279 23.2357L105.223 21.6345C104.801 22.5721 104.02 23.887 102.654 24.9884C100.824 26.4643 98.8782 26.7922 97.8821 26.8561L97.58 26.8755Z" fill="#222124"/>
<path d="M133.047 7.41924C133.022 7.41924 132.997 7.41788 132.972 7.4153C132.734 7.38954 132.511 7.24014 132.341 6.99475C132.032 6.54776 131.944 5.86569 132.112 5.21436L132.35 5.276C132.171 5.97422 132.332 6.54913 132.543 6.85463C132.672 7.04026 132.834 7.1524 132.998 7.17043C133.164 7.18812 133.35 7.11565 133.528 6.96676C133.891 6.66213 134.14 6.11194 134.179 5.53135L134.425 5.54748C134.382 6.19264 134.099 6.80913 133.686 7.15549C133.481 7.32738 133.257 7.41924 133.047 7.41924Z" fill="#EFFAFA"/>
<path d="M131.148 0.133747C130.449 0.0133707 129.696 0.92126 129.362 2.22153L130.273 2.94688L129.195 3.31763C129.134 4.55814 129.533 5.5567 130.196 5.67056C130.971 5.80415 131.813 4.67285 132.076 3.14368C132.34 1.61467 131.924 0.267003 131.148 0.133747Z" fill="#EFFAFA"/>
<path d="M129.315 3.40684C129.278 4.55703 129.651 5.45221 130.217 5.54923C130.544 5.60641 130.904 5.39519 131.229 4.95713C131.573 4.49503 131.831 3.8437 131.955 3.12298C132.079 2.40227 132.054 1.702 131.884 1.15163C131.723 0.629771 131.454 0.311397 131.127 0.255244C130.522 0.150151 129.83 0.972343 129.501 2.17525L130.525 2.99023L129.315 3.40684ZM130.323 5.80475C130.273 5.80475 130.224 5.80028 130.175 5.79204C129.46 5.66908 129.007 4.64907 129.072 3.31171L129.076 3.22841L130.021 2.90352L129.222 2.26834L129.242 2.19106C129.601 0.797719 130.413 -0.118586 131.169 0.0124367C131.592 0.0850747 131.93 0.463893 132.119 1.07917C132.301 1.66577 132.328 2.40656 132.198 3.16471C132.067 3.92303 131.794 4.6118 131.427 5.1043C131.087 5.56056 130.7 5.80475 130.323 5.80475Z" fill="#EFFAFA"/>
<path d="M136.809 0.808439C137.511 0.916623 137.936 2.01718 137.839 3.35643L136.745 3.75431L137.649 4.44859C137.311 5.64411 136.616 6.46373 135.952 6.36121C135.174 6.24101 134.735 4.90054 134.972 3.36725C135.209 1.83395 136.032 0.688406 136.809 0.808439Z" fill="#EFFAFA"/>
<path d="M136.696 0.922817C136.395 0.922817 136.076 1.13815 135.788 1.53964C135.452 2.00741 135.206 2.66321 135.094 3.38564C134.983 4.10875 135.02 4.80853 135.199 5.3558C135.369 5.87491 135.643 6.18865 135.971 6.23931C136.535 6.32757 137.176 5.59723 137.507 4.49478L136.492 3.71482L137.722 3.26785C137.793 2.02218 137.398 1.02379 136.791 0.930028C136.76 0.925392 136.728 0.922817 136.696 0.922817ZM136.063 6.49276C136.02 6.49276 135.976 6.48933 135.933 6.48263C135.509 6.41721 135.165 6.04406 134.964 5.43222C134.774 4.84871 134.734 4.10875 134.851 3.34854C134.968 2.58782 135.23 1.8946 135.588 1.39609C135.964 0.873028 136.403 0.620245 136.829 0.686701C137.589 0.803986 138.066 1.93064 137.962 3.36503L137.957 3.44472L136.998 3.79295L137.79 4.40121L137.768 4.4819C137.426 5.69288 136.739 6.49259 136.063 6.49276Z" fill="#EFFAFA"/>
<path d="M115.703 13.2341C115.451 13.7664 115.104 14.1047 114.657 14.2452C114.115 14.4263 113.396 14.3041 112.502 13.882C112.128 13.7058 111.74 13.4884 111.339 13.2306C111.137 13.1013 110.953 12.9969 110.785 12.9176C109.991 12.5431 109.412 12.5956 109.045 13.0763C108.986 13.1539 108.93 13.2475 108.879 13.3572C108.729 13.6749 108.647 14.2474 108.635 15.0722C108.119 15.0459 107.675 14.9451 107.307 14.771C107.078 14.6631 106.94 14.5438 106.889 14.4143C106.34 13.0872 106.227 12.078 106.555 11.3844C106.713 11.0482 106.968 10.8403 107.323 10.7618C107.674 10.6821 108.083 10.7525 108.548 10.9716C108.609 11.0003 108.696 11.0445 108.813 11.1056C108.928 11.1653 109.016 11.2095 109.076 11.2381C109.742 11.5521 110.314 11.7075 110.789 11.7037C111.218 11.7032 111.614 11.5533 111.974 11.2493C112.213 11.051 112.533 10.6821 112.93 10.1441C113.023 10.0196 113.096 9.90009 113.149 9.78813C113.512 9.01968 113.066 8.34156 111.815 7.75101C111.355 7.53395 110.912 7.3825 110.491 7.30076C110.071 7.21696 109.832 7.23498 109.775 7.35399C109.735 7.44053 109.882 7.63578 110.218 7.9399C111.035 8.67658 111.338 9.27022 111.126 9.71859C111.022 9.94045 110.662 10.0562 110.045 10.062C109.346 10.0663 108.634 9.89923 107.911 9.55768C106.512 8.89776 106.028 8.10715 106.461 7.18948C106.753 6.57059 107.437 6.25927 108.514 6.25687C109.638 6.25309 110.908 6.58675 112.325 7.25543C113.722 7.91432 114.747 8.70063 115.402 9.61762C115.97 10.4225 116.19 11.2026 116.06 11.9635C115.969 12.5003 115.849 12.9234 115.703 13.2341ZM109.959 17.8556C109.846 18.096 109.435 18.2277 108.728 18.2509C108.086 18.2736 107.488 18.211 106.931 18.0654C106.716 18.0125 106.515 17.9432 106.328 17.8552C105.875 17.6414 105.563 17.354 105.387 16.9942C105.215 16.6506 105.203 16.3194 105.35 16.0065C105.536 15.6141 106.031 15.4769 106.84 15.5959C107.506 15.6928 108.033 15.8332 108.425 16.0183C108.881 16.2332 109.274 16.5186 109.603 16.8738C109.96 17.2733 110.081 17.5987 109.959 17.8556Z" fill="#119DA4"/>
</svg>
