<svg width="200" height="250" viewBox="0 0 200 250" fill="none" xmlns="http://www.w3.org/2000/svg">
<path d="M43.628 217.837L28.622 20.0738L175.338 0L166.899 223.405L43.628 217.837Z" fill="#7CA7CB"/>
<path d="M103.346 212.802C96.6189 213.575 89.8454 213.942 82.8286 213.224C73.3387 212.253 63.9032 210.467 54.3644 210.445C43.2434 210.419 21.8391 213.9 20.7658 228.158C20.5097 231.561 23.1768 234.486 26.0122 236.386C33.7417 241.565 43.6473 242.417 52.8876 241.329C62.1278 240.239 71.0684 237.397 80.2307 235.778C83.5353 235.194 86.9639 234.774 90.2214 235.582C93.6032 236.421 96.5124 238.507 99.4619 240.362C110.808 247.501 125.475 251.572 138.917 249.428C143.479 248.7 147.993 246.796 151.071 243.352C152.7 241.53 153.93 239.29 155.96 237.931C158.524 236.213 161.831 236.236 164.917 236.272C174.19 236.382 185.611 236.245 193.796 231.339C196.913 229.47 199.674 226.231 199.923 222.82V221.838C199.833 220.602 199.39 219.358 198.493 218.163C194.389 212.694 186.858 210.661 180.461 209.576C171.372 208.034 162.102 208.159 152.917 208.28C144.3 208.394 135.658 208.504 127.087 209.498C119.026 210.434 111.218 211.897 103.346 212.802Z" fill="#A0BFD9"/>
<path d="M71.8105 17.0059C70.6935 13.7061 72.5227 9.89294 75.465 8.02679C78.4074 6.16065 82.1673 5.98139 85.5666 6.74414C90.0013 7.73943 94.229 10.441 96.1744 14.5481C97.0187 16.33 97.4066 18.2907 97.689 20.2422C98.637 26.7788 98.4844 33.474 97.2398 39.9607C96.5662 43.4729 95.1955 48.0075 96.8742 51.4144C97.7326 53.1572 99.2938 54.5404 101.127 55.182C101.526 55.3216 102.016 55.5232 102.039 55.9447C102.217 59.2603 96.3967 59.1902 94.3958 59.0066C92.0184 58.7883 89.6933 57.9712 87.7212 56.6221C84.7755 54.6083 82.6497 51.4301 81.9119 47.9391L71.8105 17.0059Z" fill="#403F68"/>
<path d="M74.3763 16.6705C75.5802 14.612 78.4432 13.852 80.6495 14.757C82.8551 15.6621 84.3176 17.9623 84.554 20.3353L74.3763 16.6705Z" fill="#FCC185"/>
<path d="M90.4951 44.0292C91.4877 38.3693 92.4797 32.545 91.3045 26.9205C90.7885 24.4475 89.8083 21.9892 88.0031 20.2219C86.1978 18.4542 83.4505 17.5073 81.058 18.3195C78.2258 14.7301 72.5938 16.852 68.8431 17.4181C67.1643 17.6719 65.5161 17.5393 63.8754 17.4067C61.9278 17.2498 59.9905 17.0927 58.0244 17.5812C55.0016 18.3315 52.4021 20.2688 51.2391 23.2149C50.783 24.3709 50.4172 25.4803 50.5257 26.7482C50.5525 27.0607 51.5326 29.6427 51.5975 29.5456C49.1817 33.1573 49.94 38.5346 53.2603 41.3378L90.4951 44.0292Z" fill="#4F4A7A"/>
<path d="M54.5845 36.9355C53.6398 36.9731 52.8391 37.7326 52.496 38.6132C52.153 39.4944 52.1861 40.4744 52.2945 41.4138C52.4802 43.0208 52.8728 44.6049 53.4594 46.113C53.9522 47.38 54.7111 48.7082 56.0079 49.1157L54.5845 36.9355Z" fill="#D07770"/>
<path d="M41.0136 89.76C42.3263 92.5448 42.2738 95.7007 42.7216 98.994C44.2562 110.278 44.3172 121.711 42.593 132.971C44.5872 133.456 46.7527 133.431 48.9102 133.177C49.3103 127.448 49.9235 121.825 49.587 116.099C49.3478 112.028 49.1481 107.942 48.7674 103.88C48.2649 98.6587 48.1551 92.7338 45.8467 87.9574C44.1081 84.3599 40.7555 81.5805 36.8976 80.539C33.234 79.5498 30.0174 80.7342 26.7679 82.5264C25.5289 83.2092 24.1817 86.2233 23.0886 86.4254C24.518 86.1701 26.0632 86.7025 27.0319 87.7835C29.7162 82.3922 35.5215 83.4076 39.0988 87.0274C39.9492 87.888 40.5624 88.8022 41.0136 89.76Z" fill="#F9AC74"/>
<path d="M10.2147 89.9138C8.37702 88.8592 5.95771 87.2402 5.21745 85.1383C5.04112 84.6375 4.97828 84.1045 4.92469 83.576C4.68384 81.2014 5.1751 78.3703 2.87915 76.8617C1.92652 76.2352 0.948169 75.7697 0.182647 74.8993C0.0961 74.8005 0.00862447 74.6897 0.000616592 74.5588L0 74.543V74.5351C0.00230997 74.3753 0.127357 74.2339 0.274579 74.1671C1.47253 73.6255 3.41799 74.7598 4.29623 75.4884C5.38361 76.3896 6.18332 77.594 6.81886 78.8549C6.63206 75.63 4.94626 73.0761 2.55098 71.0438C2.06619 70.632 0.928918 69.1517 2.06019 68.9C2.69727 68.7588 3.69333 69.3499 4.19444 69.6993C5.39192 70.5336 6.63376 71.8506 7.40267 73.0871C8.2338 74.4241 8.72412 75.9436 9.59406 77.2589C9.77593 73.9525 8.25413 70.3413 5.72179 68.2552C5.20959 67.8331 2.88669 65.7078 4.91931 65.7426C5.52267 65.7529 6.13111 66.111 6.59249 66.4712C9.63225 68.842 11.5112 72.6356 11.5548 76.4906C12.2793 73.4473 11.8221 70.1382 10.2989 67.4061C10.0571 66.9715 9.61546 65.9702 10.3573 65.8948C10.9517 65.8344 11.7493 66.7188 12.0562 67.1328C12.731 68.0416 13.1941 69.1908 13.3964 70.2936C13.7512 72.2287 13.9334 74.1952 13.9396 76.1626C13.941 76.6199 13.9409 77.1072 14.1873 77.4929C14.4012 77.8282 14.7668 78.0309 15.1178 78.2177C17.7333 79.614 20.3834 80.945 23.065 82.2096L10.2147 89.9138Z" fill="#E7877C"/>
<path d="M24.2154 95.3237C24.0945 95.2173 23.9616 95.107 23.8083 94.9875C23.0192 94.3714 21.9701 93.6467 20.9134 94.003C19.4835 94.4855 19.233 96.6454 18.902 97.8853C18.0423 101.104 17.2731 104.346 16.5959 107.608C15.2712 113.989 14.2984 120.443 13.6849 126.932C13.651 127.29 13.6259 127.681 13.8263 127.98C14.0784 128.356 14.5835 128.444 15.0322 128.5C16.3394 128.661 17.6463 128.823 18.9536 128.985C19.6198 117.682 21.9846 106.462 24.2154 95.3237Z" fill="#F9AC74"/>
<path d="M86.9182 212.209L89.571 219.285C89.571 219.285 83.5429 221.409 83.9319 226.3L106.394 214.992L98.6761 200.398L86.9182 212.209Z" fill="#E7877C"/>
<path d="M46.1034 217.836L42.6887 224.578C42.6887 224.578 37.0453 221.578 33.7083 225.175L57.2352 234.058L62.7554 218.5L46.1034 217.836Z" fill="#E7877C"/>
<path d="M105.983 204.919C102.291 197.742 87.8308 168.696 86.1636 150.878C84.2502 130.429 68.517 171.178 68.517 171.178L67.8538 172.827C67.8538 172.827 72.8231 198.005 82.5584 215.101C91.3219 213.887 99.6045 210.715 105.983 204.919Z" fill="#42406D"/>
<path d="M99.7002 73.3695C99.7002 73.3695 96.0277 66.5054 82.2814 65.0261C81.6534 64.9586 81.1101 64.6392 80.7303 64.1802C79.5482 66.067 78.1188 67.7608 76.1099 68.6252C73.9672 69.5476 71.3643 69.3114 69.4233 68.0173C68.095 67.1323 67.1171 65.7676 66.632 64.2496C66.4837 64.2911 66.3294 64.3198 66.1697 64.3317C62.5477 64.6001 55.8318 65.7704 53.3189 70.6772C49.8054 77.5381 40.7151 90.7694 40.7151 90.7694L16.8961 78.2764C13.5482 81.6626 10.8503 85.5948 8.87854 89.9691C13.5511 94.6331 27.1222 107.288 39.7743 110.471C43.107 111.309 46.6029 109.931 48.4618 107.04L54.95 98.9396C54.95 98.9396 53.5835 108.101 54.3856 120.804C54.3856 120.804 48.4188 149.885 59.0496 168.316C69.6808 186.747 96.6036 125.371 96.6036 125.371C96.6036 125.371 96.1381 111.773 91.7778 106.522C87.4175 101.27 99.7002 73.3695 99.7002 73.3695Z" fill="#AEECEF"/>
<path d="M62.1163 78.998C61.2194 80.4404 59.9748 82.4153 58.378 84.7665C56.6494 87.3144 54.5116 90.2953 51.9879 93.4886C50.7269 95.0799 49.3858 96.7558 47.6527 98.0945C45.9453 99.4135 43.7392 100.388 41.4466 100.162C40.3073 100.054 39.2148 99.6804 38.1801 99.2267C37.1434 98.7726 36.1509 98.2325 35.1679 97.7251C33.2094 96.6935 31.3511 95.64 29.6051 94.5959C26.1113 92.5097 23.0796 90.4436 20.5882 88.6368C18.5288 87.1308 16.8313 85.8209 15.5593 84.7854C15.5242 84.8426 15.4855 84.8963 15.4418 84.9485C16.6907 86.0193 18.3608 87.3567 20.4014 88.8899C22.8757 90.7348 25.8991 92.8346 29.3937 94.9474C31.1398 96.0046 33.0009 97.0694 34.9637 98.1102C35.9493 98.6226 36.9406 99.1653 38.0018 99.6325C39.0596 100.097 40.1954 100.49 41.4041 100.605C42.6136 100.732 43.824 100.522 44.9226 100.123C46.0257 99.7221 47.0279 99.1294 47.9191 98.4401C49.7043 97.052 51.055 95.3429 52.3105 93.7424C54.8234 90.5251 56.9406 87.5177 58.6393 84.9414C60.0688 82.777 61.1993 80.9239 62.0376 79.499C62.0598 79.3305 62.0892 79.1644 62.1163 78.998Z" fill="#7585A8"/>
<path d="M19.7025 79.748C19.3675 80.0881 19.0273 80.4386 18.6775 80.8102C17.5334 82.0445 16.3233 83.4472 15.1347 84.9846C13.9542 86.5286 12.9096 88.0584 12.0107 89.4813C11.5219 90.269 11.08 91.0187 10.6808 91.7266C10.7706 91.8124 10.8585 91.8966 10.9511 91.9847C11.3758 91.2675 11.8424 90.5059 12.3568 89.7012C13.2687 88.3002 14.3158 86.7888 15.4877 85.2562C16.6676 83.7297 17.8591 82.3297 18.979 81.0883C19.3495 80.684 19.7075 80.3038 20.059 79.9348L19.7025 79.748Z" fill="#7585A8"/>
<path d="M44.903 93.5352C44.9276 93.5021 44.5432 93.1668 43.8826 92.6757C43.2224 92.1846 42.2819 91.5435 41.2036 90.8987C40.1249 90.2549 39.1145 89.73 38.3693 89.3818C37.6238 89.0326 37.1467 88.8527 37.1289 88.8908C37.0896 88.9739 38.9015 89.8843 41.0427 91.1681C43.1876 92.4453 44.8485 93.6095 44.903 93.5352Z" fill="#7585A8"/>
<path d="M86.921 87.5344C86.3848 83.3462 86.6098 79.6249 88.1933 75.7269C88.9719 73.8102 89.1985 71.7236 89.9601 69.7884C90.3208 68.8725 90.7414 67.982 91.1927 67.1075C89.9438 66.6179 88.5335 66.1703 86.9341 65.8004C86.3044 66.6875 85.7927 67.6822 85.3836 68.6221C83.8657 72.105 83.3877 75.9268 81.9718 79.4587C81.2684 81.214 79.3283 81.1661 77.6659 81.1867C75.3037 81.2155 72.9389 81.1439 70.5882 80.8929C68.7003 80.6913 66.8201 80.3724 64.9648 79.9683C63.5334 79.6558 62.7178 78.7203 62.2886 77.2823C62.0399 76.4473 61.992 75.5651 62.0062 74.6942C62.0399 72.5261 62.43 70.278 62.8119 68.1456C62.8639 67.8539 63.1214 66.0344 63.4539 64.666C62.4169 64.8436 61.3075 65.0946 60.2009 65.457C59.3051 69.4218 58.9449 73.9407 57.0461 77.4078C55.5353 80.1665 53.7193 82.5422 53.1356 85.6992C52.6828 88.1477 52.5938 90.6614 53.0888 93.1111C53.5058 95.1754 53.8498 97.4909 55.2919 99.0973C55.0763 99.6324 54.8943 100.179 54.7318 100.733C54.3825 103.991 53.7938 111.431 54.3858 120.804C54.3858 120.804 48.419 149.885 59.0497 168.316C69.681 186.747 96.6038 125.371 96.6038 125.371C96.6038 125.371 96.1382 111.773 91.7779 106.522C90.1813 104.598 90.8174 99.6374 92.2641 94.1215L86.921 87.5344Z" fill="#4F4A7A"/>
<path d="M76.1158 68.6276C78.1244 67.7633 79.5542 66.0699 80.7369 64.1831C80.4229 63.8034 80.2186 63.3297 80.1887 62.8081L79.6069 52.6045L67.8538 56.0189L68.353 61.7634C68.453 62.9173 67.7115 63.9506 66.638 64.251C67.1231 65.769 68.101 67.1336 69.4287 68.0186C71.3703 69.3126 73.9726 69.5495 76.1158 68.6276Z" fill="#E7877C"/>
<path d="M70.2279 144.236C70.3285 144.206 69.8961 142.537 69.2908 139.822C68.6839 137.109 67.9452 133.339 67.4068 129.133C66.8743 124.928 66.6456 121.093 66.5532 118.314C66.4593 115.534 66.4593 113.809 66.355 113.806C66.3077 113.804 66.2523 114.234 66.1919 115.013C66.1285 115.792 66.0838 116.923 66.0692 118.32C66.0378 121.114 66.1909 124.983 66.7271 129.22C67.2693 133.456 68.0903 137.24 68.8204 139.937C69.1849 141.287 69.5109 142.37 69.7678 143.109C70.0209 143.848 70.1823 144.25 70.2279 144.236Z" fill="#3E3C63"/>
<path d="M67.4415 134.073C67.5295 134.034 67.1743 133.072 66.5614 131.542C65.954 130.01 65.087 127.908 64.3345 125.527C63.9646 124.336 63.6702 123.186 63.448 122.131C63.2443 121.074 63.0938 120.113 63.028 119.3C62.8787 117.675 62.921 116.653 62.8097 116.645C62.733 116.635 62.5168 117.653 62.5445 119.327C62.5494 120.164 62.6526 121.156 62.8275 122.247C63.021 123.335 63.3034 124.518 63.681 125.732C64.4481 128.158 65.3956 130.25 66.1186 131.737C66.8476 133.224 67.3578 134.112 67.4415 134.073Z" fill="#3E3C63"/>
<path d="M113.587 215.861C113.575 216.279 111.63 226.507 111.63 226.507C111.63 226.507 106.412 224.718 103.448 229.236C103.448 229.236 118.365 236.355 130.754 235.058L133.983 217.923L113.587 215.861Z" fill="#F7A698"/>
<path d="M130.754 235.058L132.212 227.325C127.792 226.833 123.258 227.559 119.137 229.445C118.775 229.611 118.396 229.789 118.007 229.743C117.674 229.704 117.376 229.504 117.091 229.309C115.364 228.13 113.58 226.97 111.695 226.166C111.654 226.381 111.63 226.507 111.63 226.507C111.63 226.507 106.412 224.718 103.448 229.235C103.448 229.235 118.365 236.355 130.754 235.058Z" fill="#FCC185"/>
<path d="M151.032 215.846C151.261 216.178 155.579 225.452 155.579 225.452C155.579 225.452 150.499 227.706 150.768 233.271C150.768 233.271 166.434 228.378 175.336 218.732L168.079 203.217L151.032 215.846Z" fill="#F7A698"/>
<path d="M175.336 218.732L172.061 211.729C168.341 214.432 165.227 218.156 163.096 222.49C162.909 222.871 162.715 223.273 162.387 223.509C162.105 223.711 161.759 223.764 161.426 223.812C159.41 224.105 157.36 224.451 155.435 225.143C155.526 225.337 155.579 225.451 155.579 225.451C155.579 225.451 150.499 227.705 150.768 233.271C150.768 233.271 166.434 228.377 175.336 218.732Z" fill="#FCC185"/>
<path d="M118.216 110.774C118.216 110.774 111.079 143.847 119.35 166.569C127.621 189.29 137.126 193.386 137.126 193.386L149.08 217.524C149.08 217.524 161.629 216.913 172.785 203.042C172.785 203.042 151.863 161.102 146.895 145.859C141.927 130.615 137.774 114.924 137.774 114.924L118.216 110.774Z" fill="#3066BE"/>
<path d="M129.513 143.444C129.618 143.414 129.152 141.642 128.56 138.75C128.26 137.305 127.955 135.574 127.667 133.646C127.394 131.716 127.148 129.587 126.984 127.343C126.831 125.1 126.775 122.957 126.773 121.008C126.787 119.058 126.846 117.302 126.94 115.829C127.118 112.883 127.331 111.063 127.222 111.047C127.176 111.041 127.073 111.488 126.925 112.306C126.772 113.122 126.608 114.313 126.457 115.791C126.301 117.268 126.191 119.035 126.142 121C126.109 122.965 126.146 125.128 126.301 127.392C126.466 129.655 126.733 131.802 127.043 133.743C127.367 135.681 127.725 137.415 128.088 138.856C128.445 140.298 128.774 141.454 129.041 142.24C129.302 143.029 129.468 143.458 129.513 143.444Z" fill="#325DA4"/>
<path d="M141.165 202.262L141.159 202.186C141.19 202.03 141.221 201.876 141.253 201.719L141.331 201.878C141.276 202.006 141.22 202.135 141.165 202.262Z" fill="#ECC2C9"/>
<path d="M141.331 201.878L141.253 201.719C143.067 192.746 145.556 182.679 148.63 175.543C150.159 171.993 151.842 167.408 153.487 162.364C154.077 164.704 154.175 167.226 153.877 169.629C153.3 174.273 151.43 178.61 149.584 182.865C146.833 189.203 144.082 195.541 141.331 201.878Z" fill="#3066BE"/>
<path d="M171.144 199.728C171.05 199.537 170.953 199.339 170.852 199.134C168.323 201.302 165.323 203.651 161.95 205.832C156.635 209.278 151.404 211.517 147.521 212.704C147.275 212.781 147.035 212.853 146.801 212.923L147.032 213.388C147.233 213.335 147.436 213.282 147.645 213.224C151.596 212.161 156.924 209.972 162.294 206.49C165.666 204.309 168.648 201.938 171.144 199.728Z" fill="#325DA4"/>
<path d="M159.632 207.948C159.522 207.714 159.413 207.483 159.3 207.246C157.699 203.75 156.023 199.859 154.374 195.717C151.101 187.418 148.481 179.735 146.562 174.182C145.603 171.405 144.824 169.157 144.264 167.612C143.705 166.067 143.364 165.225 143.297 165.252C143.23 165.278 143.444 166.17 143.888 167.761C144.332 169.352 145.007 171.642 145.879 174.458C147.626 180.087 150.145 187.836 153.435 196.177C155.091 200.34 156.804 204.243 158.462 207.733C158.589 207.991 158.712 208.244 158.837 208.498C159.049 208.23 159.333 208.038 159.632 207.948Z" fill="#325DA4"/>
<path d="M133.179 112.747C133.179 112.747 127.324 135.246 124.296 144.687C121.269 154.129 110.227 193.877 108.321 215.719C108.321 215.719 116.372 225.551 137.774 222.394C137.774 222.394 141.724 191.574 148.63 175.543C155.536 159.511 165.569 122.387 161.089 117.119C156.608 111.85 133.179 112.747 133.179 112.747Z" fill="#3066BE"/>
<path d="M151.64 115.563C151.606 115.029 151.576 114.54 151.548 114.086C151.535 113.899 151.522 113.734 151.51 113.59C151.457 113.582 151.404 113.574 151.351 113.566C151.347 113.718 151.344 113.894 151.341 114.094C151.339 114.546 151.336 115.035 151.334 115.567C151.314 116.184 151.293 116.852 151.27 117.574C151.146 120.587 150.852 124.957 149.863 130.239C148.916 135.528 147.28 141.709 144.958 148.362C142.645 155.022 139.601 162.121 136.283 169.512C132.964 176.902 129.746 183.934 127.134 190.503C124.51 197.06 122.476 203.159 121.293 208.45C120.644 211.296 120.251 213.884 120.021 216.151C120.21 216.14 120.398 216.168 120.577 216.231C120.863 213.999 121.306 211.454 121.996 208.653C123.255 203.448 125.338 197.438 127.998 190.933C130.644 184.42 133.879 177.421 137.203 170.021C140.524 162.621 143.56 155.47 145.841 148.739C148.132 142.016 149.713 135.751 150.576 130.392C151.483 125.039 151.668 120.617 151.669 117.582C151.659 116.856 151.649 116.184 151.64 115.563Z" fill="#325DA4"/>
<path d="M137.876 217.375C134.621 217.586 131.028 217.562 127.284 217.122C123.544 216.636 120.034 215.78 116.901 214.778C115.35 214.22 113.863 213.729 112.523 213.107C111.849 212.808 111.184 212.555 110.57 212.25C109.967 211.945 109.379 211.648 108.806 211.359L108.791 211.351C108.767 211.54 108.745 211.725 108.722 211.912C109.255 212.197 109.799 212.488 110.358 212.788C110.973 213.111 111.639 213.38 112.314 213.694C113.659 214.347 115.155 214.867 116.718 215.449C119.876 216.499 123.424 217.387 127.208 217.878C130.996 218.325 134.633 218.326 137.922 218.075C138.081 218.056 138.237 218.04 138.395 218.022C138.429 217.793 138.465 217.558 138.502 217.314C138.293 217.334 138.087 217.354 137.876 217.375Z" fill="#325DA4"/>
<path d="M130.404 123.208C129.187 122.974 127.973 122.711 126.783 122.391C126.777 121.92 126.774 121.459 126.773 121.008C126.779 120.154 126.794 119.337 126.817 118.566C128.278 118.813 129.839 119.053 131.46 119.263C131.138 120.473 130.782 121.804 130.404 123.208ZM126.131 122.21C123.034 121.316 120.128 120.007 117.79 117.817L118.951 116.985C120.626 117.376 123.194 117.935 126.244 118.467C126.198 119.265 126.164 120.112 126.142 121C126.135 121.396 126.132 121.799 126.131 122.21Z" fill="#325DA4"/>
<path d="M126.783 122.392C126.565 122.333 126.348 122.273 126.131 122.21C126.132 121.8 126.135 121.396 126.142 121.001C126.164 120.113 126.198 119.266 126.244 118.467C126.433 118.5 126.624 118.533 126.816 118.566C126.794 119.338 126.779 120.154 126.773 121.008C126.774 121.46 126.777 121.921 126.783 122.392Z" fill="#763936"/>
<path d="M147.083 141.774C145.016 140.947 143.137 139.668 141.671 137.983C138.719 134.59 137.517 130.065 136.292 125.737C136.181 125.346 136.063 124.942 135.803 124.628C135.355 124.087 134.6 123.937 133.907 123.822C132.749 123.629 131.575 123.432 130.404 123.208C130.782 121.803 131.138 120.473 131.46 119.263C134.831 119.699 138.453 120.01 141.941 120.01C143.655 120.01 145.336 119.935 146.939 119.763C147.401 122.583 147.96 125.386 148.686 128.15C148.689 128.163 148.692 128.176 148.696 128.188C149.001 129.352 149.294 130.492 149.608 131.601C148.995 134.734 148.153 138.152 147.083 141.774Z" fill="#3066BE"/>
<path d="M147.924 142.083C147.641 141.988 147.36 141.886 147.083 141.774C148.153 138.152 148.995 134.734 149.608 131.601C149.759 132.134 149.914 132.661 150.078 133.179C149.533 135.964 148.816 138.949 147.924 142.083Z" fill="#325DA4"/>
<path d="M161.422 70.6755C161.422 70.6755 156.52 62.8986 142.743 60.9824C142.602 60.9629 142.468 60.9216 142.34 60.8711C141.782 61.8305 141.109 62.7057 140.247 63.4033C138.324 64.9597 135.569 65.4166 133.247 64.5643C131.673 63.9862 130.339 62.8209 129.499 61.3742C129.283 61.5285 129.034 61.6415 128.757 61.6871C126.28 62.0961 121.346 63.5017 119.008 68.3004C115.814 74.857 116.527 85.2221 98.7941 92.0293V109.644C98.7941 109.644 111.836 109.913 118.517 102.898C118.517 102.898 116.451 110.818 116.858 116.472C116.858 116.472 146.255 124.287 156.317 116.688C166.379 109.089 161.422 70.6755 161.422 70.6755Z" fill="#FCC185"/>
<path d="M141.861 46.5406C142.77 50.2974 145.516 52.5156 149.106 53.556C151.711 54.311 154.59 53.8287 156.966 52.522C160.45 50.6065 162.893 46.8769 163.161 42.9106C163.429 38.9442 161.469 34.8788 158.146 32.6976C154.822 30.517 150.254 30.3539 146.832 32.3761L141.861 46.5406Z" fill="#FEFEFE"/>
<path d="M131.743 85.8789C136.556 81.2937 140.257 75.6861 143.822 70.0757C145.438 67.5321 147.051 64.9191 148.385 62.2053C146.697 61.6964 144.823 61.2721 142.743 60.9824C142.602 60.9629 142.468 60.9216 142.34 60.8711C141.782 61.8305 141.109 62.7057 140.247 63.4033C138.324 64.9597 135.569 65.4166 133.247 64.5643C131.673 63.9862 130.339 62.8209 129.499 61.3742C129.283 61.5285 129.034 61.6415 128.757 61.6871C127.982 61.8153 126.967 62.0407 125.865 62.4374C126.249 70.5369 128.253 78.559 131.743 85.8789Z" fill="#3066BE"/>
<path d="M150.127 38.5155C150.629 37.3986 150.764 36.1567 150.874 34.937C151.307 30.0949 151.503 25.6145 149.074 21.2119C146.995 17.4421 143.867 15.702 139.863 14.6557C137.651 14.0776 135.344 13.9553 133.071 14.1276C131.977 14.2102 130.895 14.3764 129.814 14.5573C128.987 14.6953 128.27 15.0686 127.442 15.2272C127.044 15.3033 126.634 15.2853 126.228 15.2706C124.173 15.1962 122.094 15.2098 120.087 15.6602C115.524 16.6842 112.351 19.2696 111.291 23.8788C110.244 28.433 111.048 33.4213 113.606 37.3474L150.127 38.5155Z" fill="#FEFEFE"/>
<path d="M121.319 34.2312C117.997 34.0698 114.679 34.0638 111.356 34.2099L111.337 34.2576L111.336 34.2615C111.303 34.3664 111.262 34.4702 111.212 34.5706L111.157 34.6864C111.13 34.7614 111.099 34.8347 111.073 34.9097L111.012 35.0498C111.056 35.0629 111.102 35.0754 111.158 35.0726C114.546 34.9178 117.93 34.9226 121.319 35.0872C121.871 35.1139 121.868 34.2576 121.319 34.2312Z" fill="#FFDA57"/>
<path d="M116.849 34.8778C115.511 34.2526 114.223 34.7899 113.431 35.9823C112.895 36.7884 112.675 37.7685 112.62 38.735C112.477 41.2531 113.399 43.7417 114.777 45.854C115.425 46.8477 116.268 47.8349 117.427 48.0885L116.849 34.8778Z" fill="#F6988A"/>
<path d="M138.733 104.917C138.733 104.917 158.783 95.4952 172.57 92.8701L181.468 95.8928L149.702 110.641L138.733 104.917Z" fill="#119DA4"/>
<path d="M117.32 45.3809C117.38 45.3689 117.345 44.8604 117.198 44.0493C117.049 43.2414 116.785 42.1174 116.241 40.9602C115.696 39.802 114.936 38.8871 114.28 38.3651C113.624 37.8338 113.123 37.6621 113.1 37.7104C113.064 37.7734 113.496 38.0418 114.062 38.6062C114.633 39.1637 115.306 40.0514 115.826 41.1569C116.347 42.2631 116.655 43.3431 116.883 44.1237C117.108 44.9066 117.256 45.3938 117.32 45.3809Z" fill="#C97568"/>
<path d="M141.224 59.4469L140.109 50.5068L130.242 53.5943V59.9375C130.242 60.5264 129.951 61.0501 129.499 61.3744C130.339 62.8211 131.673 63.9864 133.247 64.5645C135.569 65.4169 138.324 64.96 140.247 63.4035C141.109 62.7059 141.783 61.8307 142.34 60.8713C141.745 60.6383 141.306 60.1015 141.224 59.4469Z" fill="#F29587"/>
<path d="M149.438 34.1209C148.492 33.7759 147.421 33.6906 146.477 34.0214C146.428 32.5775 146.311 31.1595 146.122 29.8019C145.428 24.8097 143.047 20.186 137.905 18.7002C135.174 17.9114 132.279 17.8668 129.444 18.0793C125.465 18.3759 119.992 20.3501 118.063 24.1693C116.02 28.2162 116.036 33.2647 116.132 37.6772C116.242 42.698 116.905 47.7928 119.025 52.3938C119.409 53.2271 119.851 54.0567 120.527 54.6782C123.311 57.2381 127.338 57.8265 130.978 57.5332C134.209 57.2729 138.685 56.4188 141.069 54.035C142.646 52.4585 143.784 50.475 144.548 48.3812C145.913 48.6381 147.343 48.3123 148.599 47.7124C151.208 46.4667 153.251 43.9253 153.542 41.0497C153.832 38.1743 152.153 35.1113 149.438 34.1209Z" fill="#F7A698"/>
<path d="M146.477 34.0218C146.428 32.5779 146.311 31.1599 146.122 29.8022C146 28.9232 145.825 28.0562 145.593 27.2152C146.867 29.5007 147.677 32.0905 146.683 33.9566C146.614 33.9762 146.545 33.9979 146.477 34.0218ZM116.047 32.8554L116.157 32.6261C116.154 32.6876 116.151 32.7495 116.148 32.8109C116.115 32.8261 116.081 32.8408 116.047 32.8554ZM122.055 20.288L123.562 17.1338C124.224 17.589 124.698 18.2464 125.012 18.9885C123.993 19.3281 122.986 19.7605 122.055 20.288Z" fill="#FDE5E0"/>
<path d="M140.326 36.7711C138.481 36.7711 136.64 36.2365 135.06 35.1489C133.701 34.2135 132.636 32.688 132.602 31.0065C132.108 31.1522 131.604 31.2205 131.099 31.2205C129.043 31.2205 126.985 30.0873 125.685 28.4053C125.118 27.672 124.686 26.8505 124.359 25.9823C123.908 26.8391 123.345 27.6415 122.701 28.358C120.922 30.3366 118.582 31.7318 116.148 32.8107C116.151 32.7493 116.154 32.6874 116.157 32.6259L122.055 20.2878C122.986 19.7603 123.993 19.3279 125.012 18.9883C125.162 19.3425 125.275 19.7157 125.355 20.0954L129.036 18.5374C130.023 18.2282 131.03 18.0854 132.038 18.0854C135.91 18.0854 139.794 20.1932 142.575 23.0922C143.482 24.0368 144.662 25.5449 145.593 27.2151C145.825 28.056 146 28.923 146.122 29.8021C146.311 31.1597 146.428 32.5777 146.477 34.0216C146.545 33.9977 146.614 33.976 146.683 33.9565C146.369 34.5475 145.873 35.0659 145.154 35.4792C143.664 36.336 141.993 36.7717 140.326 36.7711Z" fill="#F69B8C"/>
<path d="M123.184 38.8449C123.184 39.7136 122.807 40.4181 122.342 40.4181C121.876 40.4181 121.499 39.7136 121.499 38.8449C121.499 37.9757 121.876 37.271 122.342 37.271C122.807 37.271 123.184 37.9757 123.184 38.8449Z" fill="#C97568"/>
<path d="M132.903 38.6442C132.903 39.5134 132.526 40.2181 132.06 40.2181C131.595 40.2181 131.218 39.5134 131.218 38.6442C131.218 37.7749 131.595 37.0708 132.06 37.0708C132.526 37.0708 132.903 37.7749 132.903 38.6442Z" fill="#C97568"/>
<path d="M122.833 31.2408C123.233 31.9382 122.527 33.0943 121.256 33.8224C119.985 34.5497 118.631 34.5742 118.231 33.8761C117.831 33.1785 118.538 32.0225 119.808 31.2945C121.079 30.5666 122.433 30.5425 122.833 31.2408Z" fill="#E7DBD8"/>
<path d="M134.574 32.6431C134.291 33.396 132.95 33.5883 131.579 33.0734C130.208 32.5584 129.327 31.5305 129.609 30.7774C129.892 30.0245 131.233 29.8317 132.604 30.3467C133.975 30.8623 134.857 31.89 134.574 32.6431Z" fill="#E7DBD8"/>
<path d="M135.399 39.475C135.39 39.4077 134.943 39.4093 134.418 39.5625C133.893 39.7136 133.514 39.9521 133.543 40.0134C133.573 40.0781 133.984 39.9487 134.488 39.8032C134.992 39.656 135.408 39.5451 135.399 39.475Z" fill="#F69485"/>
<path d="M135.672 40.5026C135.669 40.4332 135.313 40.3941 134.877 40.4147C134.442 40.4353 134.091 40.508 134.095 40.5772C134.098 40.6461 134.454 40.6857 134.889 40.6651C135.325 40.6445 135.676 40.5722 135.672 40.5026Z" fill="#F69485"/>
<path d="M118.797 40.1553C118.797 40.2249 119.258 40.2808 119.826 40.2808C120.394 40.2808 120.855 40.2249 120.855 40.1553C120.855 40.0863 120.394 40.0298 119.826 40.0298C119.258 40.0298 118.797 40.0863 118.797 40.1553Z" fill="#F69485"/>
<path d="M119.415 41.6659C119.447 41.7279 119.808 41.6067 120.224 41.3954C120.639 41.1835 120.95 40.9623 120.919 40.9004C120.887 40.8385 120.525 40.9602 120.11 41.1715C119.695 41.3829 119.384 41.6045 119.415 41.6659Z" fill="#F69485"/>
<path d="M142.743 60.9824C142.602 60.9629 142.468 60.9216 142.34 60.8711C141.782 61.8305 141.109 62.7057 140.247 63.4033C138.324 64.9597 135.569 65.4166 133.247 64.5643C131.673 63.9862 130.339 62.8209 129.499 61.3742C129.283 61.5285 129.034 61.6415 128.757 61.6871C128.282 61.7658 127.715 61.8821 127.094 62.0506C128.132 64.2232 129.963 66.0143 132.17 66.9785C134.696 68.0814 137.678 68.0874 140.206 66.9944C141.318 66.5146 142.333 65.8383 143.284 65.0895C144.525 64.1123 145.67 62.9893 146.606 61.7208C145.403 61.4258 144.119 61.1737 142.743 60.9824Z" fill="#325DA4"/>
<path d="M118.798 70.4772C118.651 70.2773 118.481 70.1105 118.302 69.959C118.237 70.1279 118.174 70.299 118.111 70.4718C118.197 70.556 118.282 70.6407 118.353 70.7374C119.303 72.371 118.221 73.8243 116.886 74.1459C116.82 74.3438 116.752 74.543 116.683 74.7429C116.933 74.7201 117.185 74.6773 117.44 74.5888C119.14 73.9993 119.651 71.944 118.798 70.4772Z" fill="#FDDABA"/>
<path d="M115.865 90.3985C115.058 90.4767 114.213 90.1416 113.696 89.1751C113.185 88.2206 113.418 87.0156 114.28 86.3653C114.724 86.0291 115.273 85.909 115.814 85.9573C115.847 85.7944 115.885 85.6335 115.928 85.4727C115.355 85.4233 114.76 85.5286 114.207 85.8047C112.968 86.4229 112.633 88.0657 113.171 89.2572C113.706 90.4415 114.792 91.0624 115.995 90.9506C115.948 90.7675 115.904 90.5844 115.865 90.3985Z" fill="#FDDABA"/>
<path d="M103.145 99.0817C102.634 98.1276 102.867 96.9228 103.728 96.2724C104.764 95.4895 106.377 95.8497 107.112 96.8521C108.7 99.5841 104.608 101.816 103.145 99.0817ZM106.198 100.703C107.898 100.114 108.409 98.0586 107.556 96.5924C106.644 95.3483 105.019 95.0315 103.656 95.7117C102.417 96.33 102.082 97.9729 102.619 99.1637C103.265 100.594 104.711 101.219 106.198 100.703Z" fill="#FDDABA"/>
<path d="M107.077 90.178C108.575 89.6587 109.148 88.0006 108.679 86.6104C108.54 86.7217 108.399 86.8326 108.255 86.9424C108.874 89.0628 106.218 90.6332 104.634 89.3181C104.478 89.406 104.309 89.4913 104.149 89.5788C104.897 90.3128 105.975 90.5605 107.077 90.178Z" fill="#FDDABA"/>
<path d="M111.23 106.361C110.318 105.117 108.692 104.8 107.329 105.48C106.109 106.089 105.77 107.69 106.274 108.876C106.442 108.842 106.612 108.807 106.783 108.77C106.327 107.829 106.565 106.673 107.402 106.041C108.438 105.259 110.05 105.619 110.785 106.62C110.964 106.93 111.068 107.231 111.114 107.52C111.271 107.463 111.428 107.402 111.584 107.34C111.523 107.001 111.408 106.668 111.23 106.361Z" fill="#FDDABA"/>
<path d="M98.7941 106.589V107.142C99.1294 107.142 99.4759 107.09 99.8258 106.968C101.525 106.379 102.036 104.324 101.183 102.857C100.596 102.056 99.7127 101.645 98.7941 101.632V102.122C99.5487 102.157 100.3 102.519 100.739 103.117C101.8 104.942 100.326 106.541 98.7941 106.589Z" fill="#FDDABA"/>
<path d="M118.113 101.061C117.103 101.853 115.467 101.876 114.65 100.35C114.139 99.3956 114.372 98.1901 115.233 97.5398C115.837 97.0839 116.634 97.0248 117.341 97.2459L117.307 97.178C117.235 97.0078 117.201 96.8445 117.182 96.6857C116.519 96.5646 115.811 96.6553 115.161 96.979C113.922 97.5973 113.587 99.2408 114.125 100.432C114.771 101.862 116.216 102.487 117.704 101.971C117.845 101.922 117.975 101.859 118.1 101.791C118.104 101.549 118.108 101.306 118.113 101.061Z" fill="#FDDABA"/>
<path d="M145.654 105.148C145.879 105.988 146.023 106.811 146.234 107.622C147.813 107.023 149.394 106.431 150.972 105.829C150.406 103.102 149.668 100.456 149.164 97.6886C148.57 94.4268 148.077 91.1471 147.686 87.8547C147.441 85.7882 147.767 83.9726 147.687 81.9414C147.589 79.4346 147.638 76.9106 148.219 74.4583C148.682 72.5086 149.398 70.5588 150.518 68.8872C151.528 67.3806 153.331 65.5802 155.321 65.8676C155.916 65.954 156.48 66.0535 157.05 66.2555C157.063 66.1257 156.977 66.0083 156.892 65.9095C155.672 64.5013 153.626 63.8363 151.838 64.3279C149.465 64.981 147.427 66.6771 146.098 68.7181C144.286 71.503 143.606 74.868 143.232 78.17C142.555 84.1633 142.817 90.2414 143.747 96.193C144.219 99.2096 144.862 102.199 145.654 105.148Z" fill="#119DA4"/>
<path d="M174.188 137.578C173.191 135.864 171.23 135.01 169.346 134.478C165.859 133.497 162.129 133.221 158.923 131.513C155.451 129.663 152.95 126.283 151.373 122.623C150.155 119.796 149.434 116.784 148.828 113.767C148.699 113.129 147.786 108.115 147.547 106.071C144.901 105.671 142.251 105.304 139.593 104.995C139.306 104.975 139.019 104.949 138.733 104.917C139.948 113.062 140.845 121.25 142.558 129.331C143.248 132.582 144.189 135.297 145.942 138.122C146.583 139.154 147.282 140.16 148.147 141.004C152.011 144.775 156.682 144.985 161.686 144.448C165.103 144.082 168.307 142.717 171.672 142.318C174.064 142.035 175.738 140.242 174.188 137.578Z" fill="#119DA4"/>
<path d="M155.648 64.9619C159.601 67.0269 162.632 70.5098 165.115 74.2144C169.995 81.4959 173.081 89.8415 175.338 98.3116C173.629 99.089 171.92 99.867 170.211 100.644C169.893 99.3063 169.289 98.0563 168.689 96.8182C166.186 91.6549 163.683 86.4913 161.179 81.328L155.648 64.9619Z" fill="#119DA4"/>
<path d="M76.4157 71.8176C79.3901 70.579 81.8599 68.1403 83.4075 65.1669C83.0409 65.1174 82.6693 65.0708 82.2874 65.0295C81.6594 64.9621 81.1161 64.6427 80.7369 64.1836C79.5542 66.0704 78.1243 67.7637 76.1158 68.6281C73.9726 69.55 71.3703 69.3131 69.4287 68.0191C68.101 67.134 67.1231 65.7695 66.638 64.2515C66.4897 64.2928 66.3354 64.3216 66.1757 64.3336C65.6595 64.3716 65.0755 64.4314 64.454 64.5144C64.8718 66.1204 65.6981 67.6225 66.7216 68.897C68.2731 70.83 70.4066 72.3989 72.7883 72.5401C74.0258 72.6136 75.2612 72.2984 76.4157 71.8176Z" fill="#7585A8"/>
<path d="M80.2073 87.8657C77.0536 87.0553 73.8592 86.7228 70.6436 86.6385C67.4524 86.2377 64.2439 86.086 61.0044 86.4126C60.1394 90.122 59.8939 93.9748 60.2965 97.7619C60.503 99.7069 60.8647 102.594 62.9178 103.443C64.1949 103.971 65.7965 104.455 67.4503 104.771L67.4437 104.858C68.025 104.953 68.6345 105.006 69.2518 105.036C69.8662 105.099 70.4768 105.139 71.0657 105.133L71.0722 105.044C72.7547 104.982 74.4111 104.744 75.7531 104.414C77.9104 103.884 78.7024 101.084 79.1995 99.1924C80.1671 95.5091 80.5045 91.6627 80.2073 87.8657Z" fill="#5A58A4"/>
<path d="M60.6039 88.4351C60.5854 88.5464 60.5659 88.6573 60.5479 88.7682C63.976 88.874 68.4715 89.1527 73.3663 89.7714C75.8252 90.0861 78.1629 90.4587 80.3078 90.8477C80.3088 90.7065 80.3067 90.5658 80.3067 90.4245C78.1792 90.0209 75.8604 89.6416 73.4224 89.3298C68.5329 88.7116 64.0362 88.4737 60.6039 88.4351Z" fill="#403F68"/>
<path d="M104.007 210.479C103.949 210.495 103.889 210.508 103.831 210.525C99.1684 211.896 95.4003 215.342 92.2814 219.069C92.1363 219.242 91.9852 219.422 91.7804 219.518C91.5343 219.634 91.2491 219.612 90.9781 219.594C90.2783 219.545 89.5759 219.544 88.8755 219.579C87.3023 220.311 83.6254 222.446 83.9319 226.3L106.394 214.992L104.007 210.479Z" fill="#AEECEF"/>
<path d="M58.9421 229.246C58.8905 229.214 58.8406 229.179 58.7888 229.148C54.6241 226.642 49.5371 226.201 44.6823 226.427C44.4563 226.438 44.2216 226.449 44.0123 226.363C43.7608 226.26 43.584 226.035 43.4143 225.823C42.9757 225.276 42.5016 224.757 42.0023 224.265C40.3986 223.603 36.3383 222.341 33.7083 225.175L57.2352 234.058L58.9421 229.246Z" fill="#AEECEF"/>
<path d="M92.9285 207.698C93.0794 207.58 93.249 207.49 93.4261 207.432C93.356 207.256 93.2859 207.083 93.2148 206.904C92.3444 204.794 91.4828 202.512 90.5587 200.118C88.7567 195.312 86.871 189.992 85.0548 184.354C83.2565 178.71 81.7007 173.285 80.3746 168.326C79.7357 165.841 79.1103 163.483 78.5927 161.26C78.0434 159.043 77.579 156.969 77.1568 155.073C77.003 154.413 76.8646 153.781 76.732 153.163C76.6189 153.368 76.5065 153.575 76.3941 153.784C76.4848 154.237 76.5809 154.701 76.6836 155.175C77.0758 157.08 77.5137 159.164 78.0402 161.39C78.5345 163.623 79.1403 165.991 79.7639 168.486C81.0591 173.463 82.6004 178.906 84.4024 184.563C86.2228 190.214 88.1313 195.539 89.9693 200.343C90.9113 202.736 91.7942 205.015 92.6894 207.12C92.7693 207.316 92.8486 207.505 92.9285 207.698Z" fill="#2E2F4A"/>
<path d="M71.1573 96.0962C68.81 97.3571 66.7889 99.2211 65.3429 101.459C64.5479 102.69 63.0127 105.743 64.3117 107.105C64.3807 107.178 64.4638 107.243 64.5621 107.26C64.8511 107.309 65.0228 106.954 65.1011 106.671C65.8731 103.887 67.3648 101.686 69.7253 100.001C67.6565 102.846 66.5228 106.36 66.5391 109.877C66.5445 110.968 66.7063 112.163 67.5067 112.904C68.1667 112.075 68.1293 110.917 68.1987 109.86C68.3965 106.863 69.7498 103.957 71.9164 101.877C70.3761 105.355 69.9997 109.335 70.8603 113.04C72.0271 112.591 72.1984 111.055 72.3407 109.812C72.6209 107.364 73.5277 104.989 74.9511 102.977C74.4664 104.722 74.2943 106.547 74.4338 108.352C74.5447 109.786 74.6545 111.368 75.6659 112.49C75.7633 112.599 75.8806 112.706 76.0257 112.717C76.2636 112.734 76.4325 112.487 76.5037 112.259C76.6846 111.68 76.5374 111.278 76.4586 110.73C76.3565 110.02 76.4108 109.263 76.4901 108.552C76.6988 106.669 77.6028 105.172 79.0528 103.985C80.5147 102.788 82.4357 102.175 83.2511 100.314L71.1573 96.0962Z" fill="#F7A698"/>
<path d="M104.078 201.141C103.4 201.593 102.688 202.043 101.954 202.517C99.6178 203.94 96.9721 205.378 94.0894 206.667C91.196 207.931 88.3509 208.918 85.7258 209.687C84.4036 210.037 83.153 210.395 81.9583 210.633C81.4102 210.748 80.8847 210.877 80.3702 210.974C80.4523 211.141 80.5359 211.305 80.6191 211.47C81.0917 211.386 81.5736 211.283 82.0756 211.188C83.2867 210.973 84.5551 210.632 85.8954 210.295C88.5568 209.552 91.441 208.572 94.3666 207.294C97.2812 205.991 99.9475 204.519 102.289 203.051C103 202.58 103.688 202.129 104.344 201.677C104.257 201.503 104.168 201.324 104.078 201.141Z" fill="#2E2F4A"/>
<path d="M65.6633 225.138C67.6462 218.88 75.0966 195.306 76.8471 188.874C78.8702 181.436 103.309 135.379 95.4095 116.063C87.5098 96.7465 79.3793 114.281 79.3793 114.281C79.3793 114.281 53.8443 182.543 42.2708 214.194C48.1937 220.21 56.8748 223.671 65.6633 225.138Z" fill="#4F4A7A"/>
<path d="M90.7364 116.223C90.7136 115.903 90.6923 115.613 90.6728 115.339C90.6543 115.14 90.6397 115.039 90.6276 115.039C90.6158 115.04 90.6076 115.142 90.6027 115.342C90.6016 115.616 90.5999 115.907 90.5984 116.226C90.5935 117.003 90.5896 118.148 90.5163 119.62C90.3712 122.556 89.9545 126.829 88.5154 131.894C87.8158 134.427 86.7868 137.126 85.7171 140.042C84.6393 142.951 83.457 146.048 82.125 149.269C80.7994 152.493 79.2902 155.824 77.6338 159.239C75.96 162.655 74.2301 166.185 72.4581 169.803C68.9529 177.076 66.0958 184.222 63.5957 190.743C61.0966 197.266 58.9117 203.16 56.9759 208.071C55.6526 211.43 54.4639 214.32 53.456 216.682C53.572 216.687 53.6882 216.703 53.8045 216.74C54.854 214.41 56.0769 211.561 57.4257 208.251C59.4212 203.357 61.6545 197.475 64.1846 190.97C66.7152 184.466 69.582 177.348 73.0751 170.1C74.843 166.48 76.569 162.947 78.2379 159.53C79.8894 156.104 81.3953 152.75 82.7089 149.509C84.0291 146.27 85.194 143.159 86.2506 140.236C87.2958 137.315 88.3047 134.592 88.9826 132.023C90.374 126.897 90.719 122.582 90.7826 119.629C90.8157 118.149 90.7759 117 90.7364 116.223Z" fill="#2E2F4A"/>
<path d="M66.7821 221.601C65.8779 221.387 64.942 221.117 63.9658 220.853C61.4188 220.081 58.6667 219.076 55.8856 217.772C53.1174 216.44 50.5992 214.942 48.3926 213.455C47.3117 212.68 46.267 211.965 45.3565 211.206C44.8964 210.834 44.435 210.494 44.0206 210.133C43.9533 210.074 43.8894 210.018 43.8225 209.959C43.7573 210.137 43.6927 210.313 43.6281 210.489L43.6752 210.533C44.085 210.908 44.5422 211.262 44.9996 211.649C45.9049 212.434 46.9485 213.174 48.0327 213.974C50.2459 215.507 52.7878 217.042 55.5917 218.39C58.408 219.712 61.2043 220.712 63.7908 221.459C64.7659 221.71 65.7015 221.964 66.605 222.162C66.6619 221.981 66.7223 221.791 66.7821 221.601Z" fill="#2E2F4A"/>
<path d="M97.4973 97.2466C96.9394 95.3793 96.381 93.5127 95.8224 91.6455C95.2351 92.4517 94.3246 92.8341 93.325 93.0053C92.5443 93.1394 91.7099 93.1454 90.9313 93.1248C85.9192 92.9939 80.2811 92.0795 75.4128 93.3529C73.4544 93.8652 71.5883 94.6166 69.9878 95.884C69.671 96.1345 68.257 97.0667 68.9235 97.5448C69.0256 97.6177 69.4006 97.5644 69.5293 97.5818C69.8693 97.6291 70.2154 97.7426 70.5457 97.835C71.1873 98.0142 71.8191 98.2287 72.4385 98.4744C74.955 99.4729 77.2535 100.977 79.2848 102.756C82.1842 103.254 85.1629 103.326 88.077 103C88.4509 102.669 88.8474 102.335 89.3026 102.022C91.4789 100.524 93.9079 99.3919 96.4586 98.7026C96.9183 98.5786 97.4599 98.394 97.5751 97.9328C97.6314 97.7067 97.5641 97.4699 97.4973 97.2466Z" fill="#FCC185"/>
<path d="M93.6619 109.781C88.4579 110.388 82.7193 110.725 76.6934 110.84C70.5393 110.949 64.6703 110.885 59.3446 110.639C57.5492 110.552 55.8216 110.441 54.1584 110.315C54.1548 110.511 54.1511 110.708 54.148 110.908C55.8047 111.047 57.5253 111.17 59.3132 111.269C64.6562 111.551 70.5361 111.634 76.7065 111.524C82.8156 111.408 88.6388 111.046 93.9091 110.389C93.8293 110.183 93.7466 109.981 93.6619 109.781Z" fill="#2E2F4A"/>
<path d="M94.6892 112.728C94.3415 112.771 93.9987 112.817 93.6462 112.859C88.3553 113.49 82.4983 113.838 76.3451 113.955C70.1909 114.064 64.3221 114 58.9964 113.754C57.3177 113.672 55.7004 113.57 54.1373 113.455C54.1384 113.654 54.1384 113.849 54.1402 114.051C55.6928 114.179 57.2987 114.292 58.9644 114.384C64.3075 114.666 70.1877 114.75 76.3582 114.639C82.5286 114.522 88.4095 114.154 93.7216 113.485C94.1063 113.437 94.4805 113.385 94.8587 113.334C94.8044 113.131 94.7468 112.929 94.6892 112.728Z" fill="#65362F"/>
<path d="M64.5474 120.012C64.5376 119.807 61.5035 119.886 57.8211 119.377C56.5075 119.203 55.2971 118.979 54.2752 118.772L54.2792 118.864C54.2853 118.995 54.2917 119.126 54.2984 119.257L54.3052 119.378C55.2928 119.638 56.457 119.886 57.7293 120.055C61.4921 120.574 64.5681 120.184 64.5474 120.012Z" fill="#3E3C63"/>
<path d="M12.4475 120.29C15.2196 119.676 17.3016 118.33 19.9039 117.384C21.5788 116.774 23.4266 116.991 25.1943 117.217C37.0994 118.734 47.9561 120.641 59.6184 123.562C57.548 130.622 52.0783 135.516 45.0436 137.67C43.0467 138.282 40.3163 139.181 38.2218 139.158C35.845 139.133 33.0331 137.341 30.9292 136.317C25.9036 133.869 21.1336 130.895 16.7266 127.455C15.7507 126.694 14.7374 125.827 14.4268 124.628C14.2343 123.886 14.3364 123.091 14.1388 122.35C13.9413 121.609 13.2403 120.884 12.502 121.092L12.4475 120.29Z" fill="#D39467"/>
<path d="M23.6398 109.326C23.6404 109.322 23.641 109.319 23.6416 109.315C23.641 109.319 23.6404 109.322 23.6398 109.326ZM23.6439 109.304C23.6444 109.302 23.6445 109.3 23.645 109.298C23.6445 109.3 23.6444 109.302 23.6439 109.304Z" fill="#BBE3E1"/>
<path d="M145.796 46.9771C144.994 45.2376 144.765 43.5258 145.089 41.6222C145.385 39.8897 146.201 38.2349 147.476 37.0141C147.815 36.6898 148.185 36.3917 148.61 36.1916C149.003 36.0059 149.438 35.9092 149.873 35.9092C149.929 35.9092 149.985 35.9107 150.041 35.9141C150.206 35.9234 150.378 35.9498 150.509 36.0515C150.625 36.1411 150.693 36.2791 150.753 36.4134C151.599 38.3034 151.632 40.5416 150.841 42.455C149.956 44.5939 147.696 45.82 145.796 46.9771Z" fill="#F69B8C"/>
<path d="M149.752 35.8795C149.739 35.8346 148.993 36.0143 147.986 36.7059C146.987 37.3822 145.759 38.6563 145.109 40.4283C144.461 42.2022 144.577 43.9672 144.902 45.1288C145.225 46.3072 145.678 46.9259 145.718 46.8998C145.789 46.8662 145.448 46.2038 145.219 45.0555C144.984 43.9194 144.931 42.2538 145.54 40.5865C146.151 38.9202 147.267 37.6827 148.179 36.9666C149.096 36.2371 149.784 35.9513 149.752 35.8795Z" fill="#C97568"/>
<path d="M147.462 44.4898C147.523 44.4951 147.615 44.1925 147.679 43.6857C147.738 43.1832 147.773 42.4504 147.532 41.6691C147.286 40.883 146.759 40.2947 146.288 40.0338C145.813 39.7639 145.462 39.7899 145.457 39.8426C145.441 39.9128 145.741 40.0035 146.105 40.3016C146.469 40.5928 146.88 41.1237 147.094 41.8071C147.308 42.497 147.332 43.1789 147.355 43.6726C147.374 44.1693 147.397 44.4848 147.462 44.4898Z" fill="#C97568"/>
<path d="M127.108 44.0318C127.12 43.9944 126.916 43.9248 126.633 43.6944C126.359 43.4647 126.004 43.0322 125.897 42.4021C125.841 42.0924 125.869 41.7404 126.008 41.4111C126.151 41.0748 126.414 40.7618 126.715 40.4311C127.01 40.1003 127.362 39.7324 127.584 39.2413C127.808 38.7579 127.891 38.2086 127.888 37.667C127.869 36.575 127.588 35.6096 127.367 34.7327C127.131 33.8558 126.87 33.0806 126.63 32.439C126.142 31.1558 125.739 30.4083 125.685 30.4317C125.622 30.4583 125.919 31.2488 126.322 32.5439C126.522 33.1926 126.747 33.9678 126.957 34.8376C127.154 35.7084 127.414 36.6743 127.429 37.6696C127.431 38.1656 127.359 38.6442 127.173 39.056C126.996 39.4678 126.692 39.8074 126.396 40.1519C126.103 40.494 125.813 40.8543 125.655 41.2667C125.499 41.6838 125.493 42.1103 125.579 42.4651C125.748 43.1876 126.195 43.6331 126.529 43.8401C126.875 44.0454 127.103 44.0542 127.108 44.0318Z" fill="#C97568"/>
<path d="M128.949 42.6933C128.856 42.6079 128.611 42.7225 128.403 42.9497C128.195 43.1773 128.101 43.4309 128.195 43.5168C128.288 43.6022 128.533 43.4874 128.741 43.2598C128.95 43.0328 129.043 42.779 128.949 42.6933Z" fill="#C97568"/>
<path d="M130.98 46.4458C130.822 46.3409 129.881 47.0699 128.384 47.4106C127.641 47.5703 126.914 47.561 126.41 47.4909C125.901 47.4247 125.593 47.3172 125.53 47.3721C125.474 47.4144 125.697 47.6317 126.26 47.7996C126.812 47.9691 127.702 48.0413 128.596 47.8468C129.485 47.653 130.131 47.2872 130.513 46.9988C130.898 46.706 131.049 46.4849 130.98 46.4458Z" fill="#C97568"/>
<path d="M82.0371 99.9699C81.5264 99.0158 81.7594 97.8108 82.6204 97.16C83.6565 96.3777 85.2689 96.7379 86.0035 97.7403C87.5926 100.472 83.5001 102.704 82.0371 99.9699ZM86.4484 97.48C85.5368 96.2365 83.9113 95.9197 82.5482 96.5999C81.309 97.2182 80.9744 98.8611 81.5117 100.052C82.1577 101.482 83.6033 102.107 85.0907 101.591C86.7901 101.002 87.3014 98.9469 86.4484 97.48Z" fill="#FDDABA"/>
<path d="M125.645 19.1057C124.487 24.941 120.141 29.6673 115.289 33.1105C114.614 29.6033 115.35 25.8443 117.299 22.8509C119.248 19.8575 122.387 17.6632 125.867 16.8613L125.645 19.1057Z" fill="#FEFEFE"/>
<path d="M118.34 78.5467C118.464 78.5467 118.563 77.2396 118.563 75.6266C118.563 74.0143 118.464 72.7065 118.34 72.7065C118.218 72.7065 118.118 74.0143 118.118 75.6266C118.118 77.2396 118.218 78.5467 118.34 78.5467Z" fill="#DE975A"/>
<path d="M118.095 106.527C118.14 106.527 118.192 105.999 118.265 105.044C118.328 104.088 118.454 102.701 118.374 100.967C118.331 100.102 118.223 99.1498 117.972 98.1513C117.721 97.1641 117.409 96.1357 117.107 95.0465C116.807 93.9593 116.508 92.8169 116.314 91.6179C116.113 90.4221 116.051 89.1666 116.109 87.8792C116.217 85.3029 116.842 82.8935 117.595 80.7829C117.973 79.7257 118.387 78.7391 118.801 77.8276C119.237 76.9154 119.56 75.9956 119.758 75.1503C120.156 73.4488 120.139 72.0254 120.062 71.0654C119.972 70.1017 119.832 69.5845 119.796 69.5904C119.746 69.5975 119.805 70.1255 119.818 71.0768C119.819 72.0248 119.767 73.4108 119.328 75.0411C119.106 75.8581 118.783 76.7094 118.33 77.6069C117.89 78.5203 117.452 79.5132 117.052 80.5841C116.255 82.7218 115.594 85.191 115.482 87.8508C115.421 89.1753 115.492 90.4836 115.708 91.7189C115.916 92.9543 116.234 94.1136 116.551 95.2051C116.87 96.2954 117.201 97.3228 117.469 98.2832C117.731 99.2351 117.861 100.153 117.931 100.997C118.066 102.687 118.009 104.077 118.021 105.035C118.023 105.994 118.053 106.526 118.095 106.527Z" fill="#DE975A"/>
<path d="M188.092 113.712C186.137 107.685 183.66 101.836 181.468 95.8931C176.999 96.6266 172.547 97.4588 168.128 98.4351C160.174 100.192 152.025 101.917 144.689 105.524C144.703 107.647 146.464 116.662 146.589 117.515C147.116 121.09 147.768 124.653 148.686 128.15C150.255 134.128 151.492 139.463 156.787 143.25C159.287 145.04 163.186 144.375 166.074 144.084C169.982 143.691 173.841 142.847 177.601 141.721C181.719 140.487 186.332 138.939 189.169 135.509C193.946 129.735 190.801 122.879 188.999 116.658C188.712 115.67 188.409 114.689 188.092 113.712Z" fill="#159399"/>
<path d="M155.636 107.842C159.394 108.017 162.979 108.796 166.621 107.457C169.93 106.241 172.362 103.424 175.623 102.084C178.147 101.046 180.974 101.464 183.751 101.878C183.537 101.327 183.323 100.776 183.11 100.224C182.934 100.201 182.757 100.178 182.58 100.155C179.778 99.7899 176.86 99.5791 174.244 100.87C171.568 102.191 169.344 104.211 166.713 105.608C163.356 107.391 159.227 106.451 155.636 106.181C152.627 105.956 149.921 106.552 147.171 107.741C146.494 108.034 145.79 108.394 145.067 108.791C145.155 109.367 145.254 109.976 145.358 110.596C148.567 108.855 151.722 107.659 155.636 107.842Z" fill="#325DA4"/>
<path d="M158.943 116.628C162.701 116.803 166.286 117.582 169.928 116.244C173.237 115.027 175.669 112.21 178.93 110.87C181.452 109.833 184.278 110.25 187.053 110.664C186.859 110.114 186.665 109.565 186.465 109.017C186.272 108.992 186.079 108.967 185.887 108.941C183.085 108.576 180.167 108.365 177.551 109.657C174.875 110.977 172.65 112.997 170.019 114.394C166.663 116.177 162.534 115.237 158.943 114.968C155.934 114.742 153.228 115.338 150.478 116.527C149.301 117.035 148.047 117.745 146.745 118.505C146.837 119.106 146.929 119.707 147.03 120.306C150.83 118.086 154.367 116.414 158.943 116.628Z" fill="#325DA4"/>
<path d="M162.25 125.415C166.008 125.59 169.592 126.37 173.235 125.03C176.544 123.814 178.976 120.997 182.237 119.657C184.599 118.686 187.227 118.99 189.831 119.373C189.66 118.827 189.489 118.284 189.323 117.745L189.194 117.728C186.392 117.363 183.474 117.152 180.858 118.443C178.182 119.763 175.957 121.784 173.326 123.181C169.969 124.964 165.841 124.024 162.25 123.755C159.241 123.529 156.534 124.125 153.785 125.313C152.197 126 150.471 127.049 148.673 128.1L148.686 128.15C148.832 128.709 148.976 129.259 149.12 129.806C149.334 129.682 149.546 129.559 149.755 129.435C153.78 127.046 157.442 125.191 162.25 125.415Z" fill="#325DA4"/>
<path d="M184.165 127.229C181.488 128.55 179.264 130.57 176.633 131.968C173.276 133.75 169.148 132.81 165.557 132.541C162.547 132.316 159.841 132.912 157.092 134.1C155.398 134.832 153.547 135.976 151.62 137.097C151.871 137.605 152.142 138.101 152.439 138.585C152.649 138.464 152.857 138.343 153.062 138.222C157.087 135.833 160.748 133.977 165.557 134.201C169.315 134.377 172.899 135.156 176.541 133.817C179.851 132.6 182.283 129.783 185.543 128.443C187.467 127.653 189.567 127.708 191.686 127.962C191.673 127.444 191.631 126.924 191.568 126.402C189.058 126.122 186.492 126.081 184.165 127.229Z" fill="#325DA4"/>
<path d="M62.0446 107.55C59.8314 108.26 57.4911 108.447 55.1891 108.767C52.8867 109.086 50.5479 109.563 48.5643 110.775C46.5805 111.986 44.9935 114.064 44.9267 116.387C44.9199 116.625 44.9878 116.933 45.2236 116.962C45.3801 116.982 45.5137 116.857 45.6194 116.74C46.5999 115.659 47.3492 114.388 48.3026 113.283C49.2562 112.178 50.4965 111.21 51.9468 111.046C48.8153 113.075 46.8672 116.807 46.9933 120.536C47.0087 120.989 47.2153 121.586 47.6655 121.535C48.3504 120.748 48.4987 119.649 48.7388 118.635C49.3024 116.254 50.7898 113.576 53.2547 112.757C52.9592 113.333 52.2564 113.765 51.8666 114.31C51.3447 115.04 50.9012 115.827 50.5428 116.649C49.8261 118.294 49.4501 120.09 49.4709 121.886C49.4776 122.484 49.5993 123.193 50.1423 123.444C51.1145 121.813 51.1662 119.809 52.0739 118.125C52.9121 116.571 54.3356 115.329 56.0068 114.749C55.3868 114.964 54.6969 116.476 54.4248 117.027C53.993 117.9 53.6944 118.841 53.5452 119.804C53.3853 120.837 52.5077 123.964 53.8139 124.539C54.7719 122.636 54.5998 120.098 56.2198 118.714C57.0847 117.976 58.2912 117.759 59.4273 117.818C60.5632 117.877 61.6704 118.18 62.7938 118.359C66.0432 118.874 69.4537 118.314 72.3668 116.785L62.0446 107.55Z" fill="#F7A698"/>
<path d="M167.293 132.367L164.526 125.574C165.84 125.684 167.137 125.799 168.429 125.799C169.302 125.799 170.172 125.747 171.044 125.603C170.185 128.047 168.913 130.345 167.293 132.367ZM168.352 124.243C166.85 124.243 165.32 124.059 163.846 123.904L160.938 116.764C162.347 116.88 163.738 117.013 165.121 117.013C166.726 117.013 168.321 116.834 169.928 116.244C170.988 115.854 171.957 115.301 172.893 114.684C172.834 115.287 172.774 115.889 172.713 116.489C172.465 118.967 172.213 121.458 171.578 123.864C170.538 124.144 169.452 124.243 168.352 124.243Z" fill="#119DA4"/>
<path d="M162.546 95.511C162.709 91.5876 162.651 87.6228 162.497 84.0459C164.12 87.3924 165.742 90.739 167.365 94.0855C165.782 94.5125 164.166 94.9944 162.546 95.511Z" fill="#CBADD2"/>
<path d="M157.223 97.3203C158.112 92.4472 158.497 87.5219 157.296 82.7623C156.597 79.99 155.384 76.9992 156.59 74.4068C156.93 73.675 157.531 72.9888 158.302 72.8145L161.179 81.3281C161.618 82.2336 162.058 83.1398 162.497 84.046C162.651 87.6229 162.709 91.5877 162.546 95.5111C160.762 96.08 158.974 96.6916 157.223 97.3203Z" fill="#E3A079"/>
<path d="M156.423 101.218C156.712 99.9246 156.985 98.6241 157.223 97.3202C158.974 96.6915 160.762 96.0799 162.546 95.511C164.166 94.9943 165.782 94.5125 167.365 94.0854C167.806 94.9967 168.247 95.9077 168.689 96.8181C168.906 97.2669 169.125 97.7173 169.33 98.173C168.929 98.2594 168.528 98.3464 168.128 98.435C164.234 99.2949 160.292 100.148 156.423 101.218Z" fill="#4A4A99"/>
<path d="M169.329 98.173C169.125 97.7173 168.906 97.2668 168.689 96.8181C168.247 95.9077 167.806 94.9966 167.364 94.0854C165.742 90.7389 164.12 87.3924 162.497 84.0458C162.058 83.1397 161.618 82.2334 161.179 81.3279L158.302 72.8143C158.381 72.7963 158.462 72.7838 158.546 72.7774C158.592 72.7735 158.638 72.772 158.684 72.772C159.207 72.772 159.712 72.9996 160.17 73.2598C161.362 73.9351 162.394 74.8533 163.416 75.7643C165.219 77.3707 167.038 78.995 168.442 80.96C169.472 82.4025 170.262 84.0052 170.913 85.6539C172.394 89.4042 173.154 93.326 173.468 97.3255C172.085 97.5955 170.706 97.8775 169.329 98.173Z" fill="#119DA4"/>
<path d="M165.045 115.457C163.446 115.457 161.817 115.249 160.255 115.088L157.35 107.955C158.856 108.075 160.339 108.226 161.815 108.226C163.419 108.226 165.014 108.048 166.621 107.457C169.228 106.499 171.291 104.547 173.644 103.107C173.606 106.218 173.384 109.349 173.103 112.457C172.104 113.147 171.096 113.823 170.019 114.395C168.481 115.212 166.781 115.457 165.045 115.457ZM161.738 106.67C160.042 106.67 158.312 106.436 156.665 106.273L155.766 104.066C155.987 103.121 156.209 102.172 156.423 101.218C160.292 100.148 164.234 99.295 168.128 98.4351C168.528 98.3465 168.929 98.2595 169.33 98.1731C170.706 97.8776 172.085 97.5956 173.468 97.3257C173.568 98.604 173.623 99.891 173.641 101.183C171.228 102.494 169.144 104.317 166.713 105.608C165.175 106.425 163.474 106.67 161.738 106.67Z" fill="#119DA4"/>
<path d="M161.815 108.226C160.339 108.226 158.856 108.075 157.35 107.955L156.665 106.273C158.312 106.436 160.042 106.67 161.738 106.67C163.474 106.67 165.175 106.425 166.713 105.608C169.144 104.317 171.228 102.494 173.641 101.183C173.651 101.823 173.651 102.464 173.644 103.106C171.291 104.547 169.228 106.499 166.621 107.457C165.014 108.048 163.419 108.226 161.815 108.226Z" fill="#5C5FA8"/>
<path d="M165.121 117.012C163.738 117.012 162.347 116.88 160.938 116.764L160.255 115.088C161.817 115.248 163.446 115.456 165.045 115.456C166.781 115.456 168.481 115.211 170.019 114.394C171.096 113.823 172.104 113.147 173.103 112.457C173.036 113.201 172.965 113.943 172.893 114.684C171.957 115.301 170.988 115.854 169.928 116.244C168.321 116.834 166.726 117.012 165.121 117.012Z" fill="#5C5FA8"/>
<path d="M168.429 125.799C167.137 125.799 165.84 125.684 164.526 125.574L163.846 123.904C165.32 124.059 166.85 124.243 168.352 124.243C169.452 124.243 170.538 124.145 171.578 123.864C171.56 123.933 171.541 124.002 171.522 124.07C171.381 124.586 171.221 125.098 171.044 125.603C170.172 125.747 169.302 125.799 168.429 125.799Z" fill="#5C5FA8"/>
<path d="M68.2597 62.6614C68.2582 62.6614 68.2565 62.6614 68.2543 62.6614C68.3401 62.3811 68.3798 62.0824 68.3537 61.7727C68.3798 62.0817 68.345 62.3822 68.2597 62.6614Z" fill="#F3C5CA"/>
<path d="M89.532 37.7197C88.4624 36.8619 86.9715 36.525 85.6628 36.8645C85.6792 35.2543 85.602 33.6527 85.2734 32.0849C84.4954 28.3743 83.3382 23.6164 79.8972 21.5096C76.9678 19.7163 73.3051 20.0036 70.0792 20.2763C67.2867 20.5121 64.4754 20.9712 61.9155 22.1109C59.3549 23.2513 57.0467 25.1331 55.8232 27.6545C54.2022 30.9951 54.47 34.7849 54.6976 38.3705C55.0539 43.9743 55.2179 50.5478 59.1529 54.9896C62.0197 58.2265 66.6304 58.7034 70.6919 58.3535C72.8199 58.1699 74.924 57.7506 76.9917 57.2236C79.3397 56.6255 81.0803 55.1684 82.2527 53.2365C82.6791 52.533 83.0307 51.767 83.3084 50.9564C83.4582 50.5201 83.6278 50.0932 83.8021 49.6683C85.7318 49.7943 87.7055 49.1364 89.1523 47.8506C90.7038 46.4706 91.6219 44.4046 91.6045 42.3277C91.5899 40.5871 90.8901 38.8084 89.532 37.7197Z" fill="#E7877C"/>
<path d="M61.2722 42.5862C61.3607 43.4098 61.1157 44.1117 60.7246 44.1534C60.3339 44.1959 59.9455 43.5619 59.857 42.7377C59.769 41.9141 60.014 41.2122 60.4046 41.1699C60.7953 41.1286 61.1837 41.762 61.2722 42.5862Z" fill="#A25A56"/>
<path d="M71.385 41.8089C71.4735 42.6325 71.2285 43.3344 70.838 43.3762C70.4468 43.4185 70.0585 42.7845 69.9704 41.9605C69.8818 41.1369 70.1268 40.435 70.5175 40.3931C70.908 40.3512 71.2964 40.9847 71.385 41.8089Z" fill="#A25A56"/>
<path d="M60.4057 35.5272C60.7274 36.0982 60.1129 37.0531 59.0334 37.6605C57.9545 38.2685 56.8191 38.2983 56.498 37.7273C56.1763 37.1569 56.7907 36.2018 57.8703 35.594C58.9492 34.9866 60.0846 34.9567 60.4057 35.5272Z" fill="#4F4A7A"/>
<path d="M71.4476 35.2271C71.2829 35.8606 70.178 36.123 68.9794 35.8127C67.7806 35.5021 66.9417 34.7366 67.1057 34.1026C67.2699 33.4686 68.3749 33.2062 69.5739 33.5169C70.7729 33.8271 71.6117 34.5932 71.4476 35.2271Z" fill="#4F4A7A"/>
<path d="M84.862 48.5123C84.7892 48.5123 84.7176 48.5025 84.6523 48.4715C84.5377 48.4172 84.4623 48.3069 84.397 48.1988C83.5723 46.8353 83.7782 44.8757 84.1526 43.3801C84.4051 42.3723 84.8148 41.3824 85.502 40.6022C86.1849 39.8266 87.1705 39.2783 88.2032 39.2783C88.2092 39.2783 88.2146 39.2783 88.22 39.2783C88.452 39.2794 88.6889 39.3093 88.8948 39.4152C89.4439 39.6972 89.6015 40.3974 89.67 41.0114C89.9786 43.788 89.3543 45.4341 87.3529 47.3193C86.6994 47.9353 85.8807 48.415 84.9869 48.5046C84.9456 48.5091 84.9033 48.5123 84.862 48.5123Z" fill="#DD7C70"/>
<path d="M88.5535 39.0801C88.5622 39.041 87.8315 38.9569 86.7993 39.4431C85.7818 39.9087 84.5474 41.043 83.9748 42.6929C83.4125 44.339 83.5799 45.9423 83.8379 47.0059C84.1003 48.0849 84.4263 48.6922 84.4736 48.6727C84.5409 48.6488 84.3231 48.0062 84.1465 46.9447C83.9726 45.8933 83.871 44.3712 84.3954 42.8386C84.9249 41.3136 86.0284 40.2276 86.9454 39.7219C87.8706 39.1964 88.5665 39.1618 88.5535 39.0801Z" fill="#A25A56"/>
<path d="M85.1657 47.2903C85.2211 47.3125 85.4113 47.0148 85.6536 46.496C85.8883 45.9789 86.1902 45.2193 86.2375 44.3094C86.2816 43.3929 85.9687 42.572 85.584 42.1101C85.1999 41.6375 84.8257 41.5186 84.805 41.5642C84.7649 41.6235 85.0527 41.8305 85.326 42.2906C85.6031 42.7431 85.8313 43.4727 85.7926 44.2887C85.7514 45.1106 85.5167 45.848 85.3591 46.3846C85.1962 46.9224 85.107 47.2664 85.1657 47.2903Z" fill="#A25A56"/>
<path d="M65.0696 47.323C65.0881 47.2959 64.9452 47.1754 64.7079 46.9482C64.484 46.7212 64.1162 46.374 63.9989 45.8459C63.9413 45.5852 63.9782 45.2897 64.1031 44.9963C64.2325 44.7012 64.4444 44.4085 64.6823 44.0956C64.917 43.7816 65.1853 43.4442 65.3771 43.0167C65.5749 42.5847 65.6215 42.0833 65.5809 41.6085C65.3266 39.7347 64.6514 38.1999 64.0917 37.1303C63.5186 36.0666 63.0384 35.4913 62.9943 35.5211C62.9361 35.5592 63.3197 36.1921 63.8093 37.2693C64.0532 37.8083 64.3193 38.4602 64.5607 39.2018C64.7904 39.939 65.0462 40.7838 65.1371 41.6448C65.1728 42.0751 65.1337 42.4875 64.9768 42.8433C64.8224 43.2045 64.5802 43.5312 64.3514 43.8533C64.1222 44.1749 63.8983 44.5013 63.7609 44.8583C63.6251 45.2157 63.5979 45.602 63.693 45.9209C63.8918 46.5669 64.334 46.8831 64.5975 47.0819C64.879 47.2764 65.0539 47.3465 65.0696 47.323Z" fill="#A25A56"/>
<path d="M67.5131 45.7157C67.4359 45.6211 67.1099 45.7608 66.8303 46.0726C66.5498 46.3839 66.4456 46.7228 66.5477 46.7892C66.6509 46.8576 66.9051 46.6534 67.1611 46.3703C67.4159 46.0856 67.5919 45.8113 67.5131 45.7157Z" fill="#A25A56"/>
<path d="M63.9266 47.0639C63.97 46.9872 63.8623 46.8286 63.8705 46.6059C63.864 46.3837 63.9726 46.2255 63.9302 46.149C63.9081 46.1148 63.8265 46.1159 63.7336 46.1924C63.6407 46.2674 63.5576 46.4239 63.5571 46.6048C63.556 46.7856 63.638 46.9427 63.7299 47.0181C63.8228 47.0964 63.9036 47.0974 63.9266 47.0639Z" fill="#A25A56"/>
<path d="M70.2419 47.43C70.0976 47.3275 69.3546 48.6427 67.8658 49.4917C67.1266 49.9042 66.359 50.0652 65.8014 50.0898C65.2418 50.1201 64.8836 50.0495 64.8591 50.1283C64.8352 50.1898 65.1689 50.4015 65.7896 50.4739C66.4028 50.5501 67.2949 50.4328 68.13 49.9658C68.9624 49.4997 69.5346 48.8413 69.8611 48.3359C70.191 47.8254 70.3028 47.4646 70.2419 47.43Z" fill="#A25A56"/>
<path d="M56.3137 26.7668C56.2892 26.7233 56.2654 26.6788 56.2426 26.6337L56.4289 26.5864C56.3898 26.6462 56.3518 26.7066 56.3137 26.7668Z" fill="#4C436D"/>
<path d="M77.7816 40.6316C76.0328 40.6316 74.2986 40.2116 73.0007 39.1864C71.8148 38.2494 70.6662 37.1671 69.7872 35.9388C69.847 35.9416 69.9052 35.9431 69.9628 35.9431C70.732 35.9431 71.3301 35.6802 71.4475 35.227C71.6116 34.5932 70.7728 33.827 69.5738 33.5169C69.2315 33.4283 68.8974 33.3864 68.5899 33.3864C68.5568 33.3864 68.5237 33.387 68.4904 33.3875C68.3715 32.9991 68.2841 32.5998 68.2325 32.1891C67.2426 32.6982 66.1213 32.992 65.0125 32.992C64.2797 32.992 63.5516 32.8633 62.8704 32.5835C61.1601 31.88 59.8551 30.122 59.9536 28.2754C59.6928 28.3487 59.4233 28.3841 59.1545 28.3841C58.018 28.3841 56.877 27.7594 56.3137 26.7667C56.3517 26.7065 56.3897 26.6461 56.4288 26.5863L76.1989 21.6296C76.3814 21.5757 76.5656 21.5508 76.7493 21.5508C77.6838 21.5508 78.598 22.2011 79.1549 22.9954C79.8209 23.9445 80.1446 25.0892 80.6993 26.1077C81.7219 27.987 83.5212 29.4321 84.1769 31.4687C84.5457 32.6167 84.5137 33.851 84.4409 35.0544C84.3349 36.8015 84.0263 38.9963 82.2016 39.7596C80.9173 40.2969 79.3434 40.6316 77.7816 40.6316Z" fill="#DD7C70"/>
<path d="M69.9629 35.9429C69.9053 35.9429 69.847 35.9414 69.7873 35.9386C69.2234 35.1492 68.7703 34.299 68.4905 33.3873C68.5237 33.3868 68.5569 33.3862 68.59 33.3862C68.8975 33.3862 69.2315 33.4281 69.5739 33.5167C70.7729 33.8268 71.6117 34.593 71.4476 35.2268C71.3302 35.68 70.7321 35.9429 69.9629 35.9429Z" fill="#4C436D"/>
<path d="M77.3273 113.579C77.2823 113.566 77.0122 114.346 76.563 115.768C76.0218 117.514 75.4014 119.514 74.6941 121.796C73.1268 126.888 70.9428 133.917 68.4291 141.648C65.9133 149.379 63.5446 156.347 61.8159 161.387C61.0456 163.648 60.3697 165.63 59.7803 167.361C59.3071 168.774 59.067 169.564 59.1109 169.581C59.1555 169.597 59.4803 168.839 60.0307 167.452C60.5826 166.067 61.3492 164.05 62.2723 161.549C64.1187 156.548 66.5624 149.597 69.0805 141.86C71.5964 134.122 73.7091 127.064 75.1585 121.933C75.8838 119.368 76.4504 117.286 76.8194 115.841C77.1899 114.396 77.373 113.592 77.3273 113.579Z" fill="#2E2F4A"/>
<path d="M95.5107 116.16C95.2717 114.946 94.9822 113.711 94.6312 112.519C95.4243 112.51 96.218 112.492 97.0106 112.468C97.2345 113.855 96.5124 115.104 95.5107 116.16Z" fill="#C2ACBF"/>
<path d="M75.677 124.187C75.2972 124.168 74.9181 124.141 74.5383 124.106C74.7567 123.349 74.9637 122.623 75.1586 121.933C75.884 119.368 76.4505 117.286 76.8195 115.841C76.9418 115.363 77.0439 114.956 77.1236 114.623C77.8447 114.607 78.5617 114.587 79.2734 114.564C78.9068 115.545 77.6083 119.018 75.677 124.187ZM95.4672 116.206C95.4481 116.158 95.4292 116.11 95.4096 116.063C95.0125 115.092 94.6142 114.213 94.2171 113.42C94.4311 113.392 94.6447 113.363 94.8588 113.334C94.8044 113.13 94.7468 112.929 94.6892 112.727C94.429 112.76 94.1715 112.794 93.9102 112.827C93.8564 112.724 93.8031 112.626 93.7488 112.527C94.0427 112.526 94.3372 112.523 94.6312 112.519C94.9821 113.711 95.2716 114.947 95.5106 116.16C95.4965 116.175 95.4818 116.19 95.4672 116.206ZM77.2812 113.935C77.2829 113.928 77.2839 113.921 77.2856 113.914L80.1813 112.791C79.921 113.231 79.7194 113.607 79.5831 113.87C78.8215 113.896 78.0538 113.917 77.2812 113.935Z" fill="#413E69"/>
<path d="M76.9933 124.221C76.5549 124.221 76.1158 124.209 75.6769 124.188C77.6082 119.018 78.9067 115.545 79.2734 114.564C84.3812 114.398 89.2528 114.048 93.7216 113.485C93.8884 113.465 94.053 113.443 94.217 113.42C94.6142 114.213 95.0124 115.092 95.4096 116.063C95.4292 116.11 95.4481 116.158 95.4672 116.206C94.9869 116.705 94.4459 117.161 93.9151 117.566C92.9002 118.342 91.8555 119.089 90.7793 119.785C90.7804 119.733 90.7815 119.681 90.7826 119.629C90.8157 118.149 90.776 117 90.7364 116.223C90.7136 115.903 90.6923 115.613 90.6728 115.339C90.6543 115.14 90.6397 115.039 90.6277 115.039C90.6158 115.039 90.6076 115.142 90.6027 115.341C90.6016 115.616 90.5999 115.906 90.5984 116.226C90.5935 117.003 90.5896 118.148 90.5163 119.62C90.5109 119.733 90.5049 119.848 90.4985 119.965C87.8663 121.635 85.0456 122.987 82.0175 123.675C80.3551 124.052 78.6764 124.221 76.9933 124.221ZM79.5831 113.87C79.7194 113.607 79.921 113.231 80.1812 112.791L82.0809 112.054C85.7339 112.37 89.4011 112.529 93.0681 112.529C93.2952 112.529 93.5217 112.528 93.7487 112.527C93.8031 112.626 93.8564 112.725 93.9101 112.827C93.8226 112.838 93.7347 112.848 93.6462 112.859C89.2919 113.378 84.554 113.706 79.5831 113.87Z" fill="#413E69"/>
<path d="M90.4985 119.965C90.5049 119.848 90.511 119.733 90.5163 119.62C90.5896 118.148 90.5935 117.003 90.5984 116.226C90.6 115.907 90.6016 115.616 90.6027 115.342C90.6077 115.142 90.6158 115.04 90.6277 115.039C90.6397 115.039 90.6543 115.141 90.6728 115.339C90.6924 115.613 90.7136 115.903 90.7364 116.223C90.776 117 90.8157 118.149 90.7826 119.629C90.7815 119.681 90.7804 119.733 90.7794 119.785C90.6859 119.845 90.592 119.906 90.4985 119.965Z" fill="#2B2A40"/>
<path d="M77.1236 114.624C77.1932 114.337 77.2459 114.106 77.2811 113.935C78.0537 113.917 78.8214 113.896 79.5831 113.871C84.554 113.706 89.2919 113.378 93.6461 112.859C93.7347 112.848 93.8226 112.838 93.9101 112.827C94.1714 112.794 94.4289 112.761 94.6892 112.728C94.7468 112.929 94.8044 113.131 94.8587 113.334C94.6447 113.363 94.4311 113.393 94.217 113.421C94.053 113.443 93.8884 113.465 93.7216 113.485C89.2528 114.048 84.3812 114.398 79.2734 114.564C78.5616 114.588 77.8446 114.607 77.1236 114.624Z" fill="#532F2C"/>
<path d="M73.9989 124.052C71.5639 123.781 69.1376 123.207 66.7625 122.448C66.6637 120.982 66.5994 119.645 66.5592 118.484C68.5814 118.304 70.5686 117.729 72.3668 116.786L71.6161 116.114L75.3748 114.656C75.7019 114.651 76.0295 114.645 76.3583 114.639C76.5495 114.636 76.7396 114.632 76.9304 114.628C76.826 114.942 76.7032 115.323 76.5631 115.768C76.0219 117.514 75.4015 119.514 74.6942 121.796C74.4741 122.511 74.2422 123.264 73.9989 124.052ZM66.1371 122.244C65.1745 121.922 64.2211 121.572 63.2791 121.201C63.2236 120.874 63.1747 120.56 63.134 120.259C64.0271 120.193 64.5562 120.083 64.5476 120.012C64.5433 119.925 63.9939 119.889 63.0807 119.838C63.0655 119.702 63.052 119.569 63.0399 119.44L65.3488 118.545C65.5884 118.542 65.8281 118.534 66.0671 118.52C66.0584 119.617 66.078 120.872 66.1371 122.244ZM62.6494 120.949C62.1381 120.742 61.6307 120.529 61.1271 120.312C61.2565 120.314 61.3835 120.315 61.5069 120.315C61.897 120.315 62.2587 120.306 62.5869 120.291C62.6032 120.504 62.6244 120.724 62.6494 120.949ZM62.557 119.808C62.4272 119.801 62.2924 119.793 62.1523 119.785L62.5499 119.63C62.5521 119.689 62.5542 119.748 62.557 119.808Z" fill="#413E69"/>
<path d="M66.7625 122.448C66.5539 122.381 66.3447 122.313 66.1371 122.244C66.078 120.872 66.0584 119.617 66.0671 118.52C66.2311 118.511 66.3952 118.499 66.5592 118.484C66.5994 119.645 66.6637 120.982 66.7625 122.448Z" fill="#333254"/>
<path d="M63.279 121.201C63.0682 121.118 62.8584 121.034 62.6493 120.949C62.6243 120.724 62.6031 120.504 62.5868 120.291C62.7813 120.282 62.9644 120.271 63.1339 120.259C63.1746 120.56 63.2235 120.874 63.279 121.201ZM63.0806 119.838C62.9177 119.828 62.7428 119.819 62.5569 119.808C62.5541 119.748 62.552 119.689 62.5498 119.63L63.0398 119.44C63.0518 119.569 63.0654 119.702 63.0806 119.838Z" fill="#333254"/>
<path d="M75.3747 114.655L77.1572 113.964C77.0964 114.132 77.0203 114.354 76.9302 114.628C76.7394 114.632 76.5494 114.636 76.3581 114.639C76.0293 114.645 75.7018 114.651 75.3747 114.655Z" fill="#532F2C"/>
<path d="M61.5068 120.315C61.3834 120.315 61.2564 120.314 61.127 120.312C61.0744 120.289 61.0211 120.266 60.9689 120.243L62.1522 119.784C62.2923 119.792 62.4271 119.801 62.5569 119.808C62.7428 119.819 62.9177 119.828 63.0806 119.837C63.9938 119.889 64.5432 119.924 64.5475 120.011C64.5561 120.083 64.027 120.193 63.1339 120.259C62.9644 120.271 62.7813 120.282 62.5868 120.291C62.2586 120.306 61.8969 120.315 61.5068 120.315Z" fill="#333254"/>
<path d="M65.3488 118.544L71.6161 116.113L72.3668 116.785C70.5686 117.728 68.5814 118.303 66.5592 118.484C66.3952 118.498 66.2311 118.51 66.0671 118.519C65.8281 118.534 65.5884 118.542 65.3488 118.544Z" fill="#CE8983"/>
<path d="M74.5383 124.106C74.3584 124.089 74.1785 124.071 73.9988 124.051C74.2421 123.264 74.474 122.511 74.6941 121.796C75.4014 119.514 76.0219 117.514 76.563 115.768C76.7032 115.323 76.8259 114.942 76.9303 114.628C77.0204 114.355 77.0965 114.132 77.1573 113.964L77.2856 113.915C77.2839 113.921 77.2828 113.928 77.2811 113.935C77.2458 114.106 77.1932 114.337 77.1236 114.624C77.0438 114.956 76.9417 115.363 76.8194 115.841C76.4505 117.286 75.8839 119.368 75.1586 121.933C74.9636 122.624 74.7566 123.349 74.5383 124.106Z" fill="#2B2A40"/>
<path d="M103.603 88.6252C102.59 83.7971 102.594 78.3894 100.083 74.0031C96.985 68.5915 89.4172 69.5015 88.0434 75.7932C87.1665 79.8084 86.7145 83.9161 86.6939 88.026C86.6791 90.9367 86.9329 94.6131 86.2179 97.4255C85.3971 100.656 81.7289 102.137 78.51 103.003C72.3194 104.67 65.9969 105.842 59.6217 106.517C59.5168 111.087 59.9231 115.653 60.8766 120.113C63.3723 120.471 67.8429 120.585 68.6437 120.601C72.05 120.666 75.4601 120.504 78.8453 120.119C84.4632 119.479 90.2794 118.56 95.4096 116.063C97.5577 115.017 100.32 113.421 101.792 111.489C102.494 110.57 103.029 109.552 103.431 108.464C105.771 102.131 104.956 95.0803 103.603 88.6252Z" fill="#AEECEF"/>
<path d="M64.0564 114.768C64.3502 116.799 64.6985 118.722 65.0598 120.468C65.2021 120.475 65.3433 120.483 65.4824 120.49C65.137 118.719 64.7952 116.766 64.4969 114.705C64.0336 111.48 63.7477 108.486 63.5739 106.028C63.4538 106.045 63.3338 106.061 63.2137 106.077C63.337 108.541 63.593 111.542 64.0564 114.768Z" fill="#009CA4"/>
<path d="M98.4254 94.0127C98.177 89.3503 97.5877 85.1802 96.9253 81.7157C96.261 78.2503 95.5216 75.4894 94.9695 73.5977C94.6871 72.6529 94.46 71.9222 94.2906 71.4317C94.2231 71.2388 94.1591 71.0541 94.0961 70.8738C94.0499 70.7494 94.0226 70.6864 94.0151 70.6885C94.008 70.6911 94.0205 70.7586 94.052 70.8878C94.1008 71.0726 94.1503 71.2611 94.2031 71.4584C94.3823 72.1178 94.5784 72.8371 94.7991 73.645C95.2977 75.5486 95.9876 78.3133 96.6092 81.7744C97.2285 85.2339 97.7826 89.3922 98.007 94.0338C98.1125 96.3465 98.1276 98.7994 97.58 101.246C97.0379 103.669 95.8784 106.12 93.8923 107.864C91.899 109.608 89.3261 110.389 86.8814 110.9C84.409 111.394 81.9892 111.741 79.682 112.004C75.0637 112.529 70.8729 112.696 67.3562 112.8C66.1677 112.831 65.0621 112.853 64.0342 112.869C64.0602 112.96 64.081 113.052 64.0935 113.146C65.1071 113.145 66.1943 113.138 67.3633 113.121C70.8858 113.058 75.0881 112.925 79.7282 112.421C82.0485 112.167 84.4737 111.829 86.9721 111.337C88.2189 111.077 89.4858 110.756 90.7207 110.266C91.9523 109.777 93.1578 109.116 94.1922 108.206C96.2724 106.377 97.4626 103.835 98.0147 101.344C98.5709 98.8293 98.5421 96.339 98.4254 94.0127Z" fill="#7585A8"/>
<path d="M75.4563 100.906C75.0972 100.667 74.7512 100.407 74.3643 100.21C73.7205 99.8804 73.0252 99.6637 72.3574 99.391C71.1715 98.9063 69.9877 98.4163 68.7979 97.9409C68.7197 97.9094 68.6535 97.8681 68.5834 97.8296C67.3268 98.8655 66.2266 100.091 65.3429 101.459C64.5479 102.69 63.0127 105.743 64.3117 107.105C64.3807 107.178 64.4638 107.243 64.5621 107.26C64.8511 107.309 65.0228 106.954 65.1011 106.671C65.8731 103.886 67.3648 101.686 69.7253 100C67.6565 102.846 66.5228 106.36 66.5391 109.877C66.5434 110.771 66.639 111.849 67.2019 112.585C67.3029 112.717 67.4871 112.8 67.6387 112.733C67.9097 112.613 68.0146 111.806 68.0608 111.549C68.1607 110.993 68.1618 110.423 68.1987 109.86C68.3965 106.863 69.7492 103.957 71.9164 101.876C71.6572 102.126 71.5192 102.842 71.4013 103.18C71.2253 103.684 71.0726 104.196 70.9433 104.714C70.6843 105.75 70.5186 106.809 70.4479 107.875C70.3767 108.94 70.4012 110.012 70.5218 111.073C70.5712 111.51 70.5648 112.096 70.8319 112.467C71.743 113.728 72.2852 110.298 72.3407 109.812C72.6209 107.363 73.5277 104.989 74.9511 102.977C74.4664 104.721 74.2943 106.547 74.4338 108.352C74.5447 109.785 74.6545 111.368 75.6659 112.49C75.7633 112.598 75.8806 112.706 76.0257 112.717C76.2636 112.734 76.4325 112.487 76.5037 112.259C76.6846 111.68 76.5374 111.278 76.4586 110.73C76.3565 110.019 76.4108 109.263 76.4901 108.552C76.7145 106.528 78.1368 104.523 79.1891 102.839C79.2125 102.801 75.773 101.117 75.4563 100.906Z" fill="#F7A698"/>
<path d="M73.8379 94.8688C73.6788 94.5705 73.6 94.2484 73.5821 93.9256C73.4179 93.986 73.2545 94.0479 73.0925 94.1136C73.1263 94.4038 73.1948 94.6889 73.3132 94.9507C73.9586 96.3806 75.4042 97.006 76.8923 96.4904C78.4247 95.9585 78.9871 94.2353 78.4573 92.8267C78.2819 92.8439 78.1075 92.8641 77.9331 92.8853C79.1483 95.5011 75.257 97.5199 73.8379 94.8688Z" fill="#FDDABA"/>
<path d="M46.479 171.123C49.7222 170.501 52.46 168.198 54.2527 165.424C56.0452 162.65 57.0035 159.426 57.7674 156.214C60.3028 145.553 60.9325 134.441 59.6183 123.562C59.6438 123.773 52.0262 125.791 51.487 125.948C51.2676 126.012 51.0267 126.092 50.9156 126.291C50.8124 126.477 50.8549 126.705 50.8975 126.913C52.0236 132.395 51.2813 138.242 48.8212 143.269L46.479 171.123Z" fill="#F9AC74"/>
<path d="M49.587 116.099C49.3478 112.028 49.1481 107.942 48.7674 103.88C48.2649 98.6587 48.1551 92.7338 45.8466 87.9574C44.108 84.3599 40.7555 81.5805 36.8975 80.5391C33.9308 79.7383 31.2572 80.3637 28.622 81.5822C29.6165 82.4617 30.6472 83.2978 31.6864 84.1247C34.212 83.7276 37.0264 84.9303 39.0988 87.0274C39.9492 87.888 40.5624 88.8023 41.0136 89.76C42.3263 92.5449 42.2738 95.7007 42.7216 98.994C44.2562 110.278 44.3171 121.711 42.593 132.971C44.5871 133.456 46.7526 133.431 48.9101 133.177C49.3102 127.448 49.9234 121.825 49.587 116.099Z" fill="#F9AC74"/>
<path d="M53.5935 125.477C53.0342 125.416 52.475 125.353 51.916 125.289C48.8917 124.99 45.8748 124.641 42.8759 124.289C36.8875 123.587 30.806 122.961 24.8126 121.939C20.5978 121.399 16.3855 120.836 12.178 120.222C9.95226 129.92 7.07235 143.747 6.52181 153.328C6.40554 155.351 6.32639 157.405 6.77006 159.382C7.77782 163.874 11.414 167.424 15.5587 169.429C19.7036 171.435 24.3467 172.12 28.9169 172.681C34.3831 173.352 40.3753 173.183 45.6714 171.598C49.0498 170.586 50.7772 169.464 51.9776 166.064C54.6182 158.585 54.427 151.026 54.3857 143.239C54.3835 142.833 54.3818 142.428 54.3808 142.021C54.378 140.758 54.8458 126.128 53.5935 125.477Z" fill="#FCC185"/>
<path d="M54.4025 146.3C53.407 145.164 52.5762 143.878 51.9042 142.535C50.7155 140.159 51.0966 137.432 49.9549 135.11C49.1508 133.474 47.1349 134.045 45.804 134.376C41.856 135.36 37.725 133.985 36.1177 130.076C35.2543 127.977 35.1404 125.719 35.4757 123.43C34.8458 123.355 34.2163 123.279 33.5866 123.201C33.2805 125.42 33.3199 127.668 33.886 129.922C34.5857 132.707 36.5759 134.86 39.1666 135.986C40.5773 136.599 42.1282 136.727 43.6468 136.726C45.3887 136.725 48.3199 135.225 48.5783 137.883C48.9985 142.201 51.1163 146.374 54.3954 149.218C54.4057 148.249 54.4063 147.277 54.4025 146.3Z" fill="#FFD887"/>
<path d="M24.8126 121.939C24.418 121.889 24.0239 121.834 23.6297 121.784C22.6079 124.374 21.7286 127.038 20.8069 129.609C18.9631 134.752 16.3382 140.126 10.051 139.817C9.46131 139.789 8.85163 139.715 8.23441 139.6C8.11938 140.276 8.00818 140.949 7.901 141.619C11.5203 142.169 15.2196 141.486 17.7619 139.219C21.4982 135.886 22.8608 130.042 24.431 125.519C24.8289 124.372 25.2476 123.221 25.7019 122.084C25.4055 122.035 25.1084 121.99 24.8126 121.939Z" fill="#FFD887"/>
<path d="M37.4809 160.754C42.3762 159.747 47.7162 159.191 51.8146 162.632C52.1704 162.931 52.4781 163.246 52.7501 163.574C52.9591 162.809 53.1411 162.043 53.3011 161.276C52.8434 160.827 52.3455 160.407 51.8064 160.022C48.0838 157.373 43.0883 157.676 38.8308 158.379C36.7684 158.718 37.5102 157.769 37.9802 156.303C38.3139 155.262 38.5316 154.144 38.655 153.058C38.9108 150.805 38.9802 148.605 38.2307 146.443C36.8718 142.523 31.9761 142.612 28.6414 142.994C23.5885 143.573 18.8834 145.936 14.5231 148.415C12.2562 149.704 10.0435 151.088 7.78923 152.398C7.41733 152.614 6.99137 152.876 6.53415 153.152C6.53076 153.209 6.52491 153.271 6.52183 153.328C6.47979 154.057 6.44375 154.791 6.4342 155.524C9.84325 153.741 13.079 151.624 16.4203 149.724C20.81 147.228 25.4925 145.243 30.5777 144.892C33.7662 144.671 36.3298 145.597 36.738 149.181C37.0261 151.709 36.4359 154.326 35.6694 156.716C35.1197 158.431 34.5662 161.353 37.4809 160.754Z" fill="#FFD887"/>
<path d="M44.9069 171.813C44.8797 170.663 44.4953 169.541 43.5618 168.525C41.4371 166.213 36.531 165.997 33.6791 166.384C32.8491 166.496 32.0618 166.768 31.2227 166.863C29.5343 167.056 29.7828 164.185 29.7637 163.318C29.7342 161.978 29.2617 160.774 28.6455 159.603C27.0203 156.514 23.6921 155.845 20.5795 156.708C16.8367 157.747 13.3402 160.51 10.589 163.154C10.1404 163.585 9.71029 164.042 9.28726 164.509C9.75203 165.095 10.2627 165.649 10.8108 166.169C12.195 164.642 13.5923 163.142 15.1755 161.959C18.0604 159.802 22.9204 156.656 26.1266 159.67C28.3785 161.787 27.201 164.913 28.3283 167.45C29.1214 169.235 31.3733 168.984 32.8931 168.683C36.3525 168 42.7528 168.353 42.7006 172.329C43.4461 172.182 44.1818 172.009 44.9069 171.813Z" fill="#FFD887"/>
<path d="M51.992 166.024C51.9925 166.023 51.9925 166.022 51.993 166.021C51.9925 166.022 51.9922 166.023 51.992 166.024ZM52.0219 165.938C52.0222 165.937 52.0227 165.936 52.0228 165.936C52.0227 165.936 52.0224 165.937 52.0219 165.938ZM52.037 165.895C52.0373 165.894 52.0375 165.894 52.0376 165.893C52.0375 165.894 52.0375 165.894 52.037 165.895Z" fill="#F8A469"/>
<path d="M34.9018 173.052C32.8771 173.052 30.8633 172.92 28.9169 172.681C24.3467 172.12 19.7036 171.435 15.5587 169.43C11.414 167.425 7.77783 163.875 6.77007 159.382C6.51182 158.231 6.43082 157.055 6.43082 155.873C6.43097 155.037 6.47193 154.199 6.51952 153.366C6.47855 154.083 6.44344 154.804 6.4342 155.524C9.84325 153.741 13.079 151.625 16.4203 149.724C19.5825 147.926 22.8967 146.393 26.404 145.546C29.5074 147.196 33.0909 147.925 36.6569 148.643C36.6897 148.815 36.7168 148.995 36.738 149.181C37.0261 151.71 36.4359 154.326 35.6694 156.717C35.1696 158.276 34.6666 160.834 36.771 160.834C36.9807 160.834 37.2165 160.809 37.4809 160.754C39.5399 160.33 41.6781 159.987 43.7689 159.987C46.649 159.987 49.4401 160.638 51.8146 162.632C52.1704 162.931 52.4781 163.247 52.7501 163.574C52.9591 162.809 53.1411 162.043 53.3011 161.276C52.8434 160.828 52.3455 160.407 51.8064 160.023C49.5389 158.409 46.7993 157.891 44.042 157.891C42.2721 157.891 40.4953 158.104 38.8308 158.379C38.5473 158.426 38.3167 158.448 38.1309 158.448C36.9667 158.448 37.5748 157.568 37.9802 156.304C38.3139 155.263 38.5316 154.144 38.655 153.059C38.8078 151.714 38.8938 150.388 38.7793 149.078C39.3882 149.207 39.9935 149.341 40.5929 149.485C44.3238 150.381 47.9501 151.71 51.3757 153.438C52.315 153.912 53.255 154.447 54.1642 155.04C53.8835 158.673 53.2898 162.271 52.0523 165.851V165.851C52.0474 165.865 52.0425 165.879 52.0375 165.893C52.0374 165.894 52.0372 165.894 52.0369 165.895C52.0323 165.908 52.0274 165.922 52.0228 165.936C52.0226 165.936 52.0221 165.938 52.0218 165.938C52.0172 165.952 52.0126 165.965 52.008 165.979C52.0075 165.979 52.0074 165.98 52.0069 165.981C52.0021 165.995 51.9975 166.008 51.9929 166.021C51.9924 166.022 51.9924 166.023 51.992 166.024C51.9873 166.037 51.9823 166.051 51.9776 166.065C51.1599 168.381 50.0978 169.64 48.4355 170.527C47.6577 170.942 46.7483 171.276 45.6714 171.598C43.9112 172.125 42.0744 172.495 40.2054 172.731C38.4531 172.951 36.6733 173.052 34.9018 173.052ZM35.9051 168.406C39.159 168.406 42.7399 169.351 42.7007 172.329C43.4462 172.182 44.1818 172.009 44.907 171.813C44.8797 170.663 44.4953 169.541 43.5618 168.525C41.9596 166.782 38.7753 166.23 36.0834 166.23C35.2056 166.23 34.3805 166.288 33.6792 166.384C32.8491 166.497 32.0619 166.768 31.2228 166.863C31.1682 166.869 31.1156 166.873 31.0649 166.873C29.5499 166.873 29.7823 164.157 29.7638 163.318C29.7342 161.978 29.2617 160.774 28.6456 159.603C27.446 157.323 25.3183 156.361 23.0348 156.361C22.2247 156.361 21.3946 156.483 20.5795 156.708C16.8367 157.747 13.3402 160.51 10.5891 163.154C10.1405 163.585 9.71035 164.042 9.28732 164.509C9.75208 165.095 10.2627 165.649 10.8108 166.17C12.1951 164.642 13.5923 163.142 15.1756 161.959C17.2088 160.439 20.2228 158.428 22.9478 158.428C24.0894 158.428 25.1802 158.78 26.1267 159.67C28.3786 161.788 27.2011 164.913 28.3284 167.45C28.8321 168.583 29.9245 168.896 31.0443 168.896C31.687 168.896 32.3388 168.793 32.8932 168.683C33.7612 168.512 34.8152 168.406 35.9051 168.406ZM6.51998 153.359C6.52044 153.349 6.52121 153.339 6.52182 153.328C6.52121 153.339 6.52044 153.348 6.51998 153.359Z" fill="#FBB578"/>
<path d="M12.5236 120.273C12.5145 120.271 12.5056 120.27 12.4966 120.268C12.5056 120.27 12.5148 120.271 12.5236 120.273Z" fill="#FEEBD8"/>
<path d="M15.5064 120.698C14.5119 120.559 13.5176 120.417 12.5237 120.273C13.5177 120.417 14.5119 120.559 15.5064 120.698Z" fill="#D78D5D"/>
<path d="M18.6292 121.127C17.5881 120.986 16.5467 120.843 15.5063 120.698C16.5472 120.843 17.5881 120.986 18.6294 121.126C18.6294 121.127 18.6292 121.127 18.6292 121.127Z" fill="#E55668"/>
<path d="M6.52182 153.328C7.07236 143.747 9.95227 129.92 12.178 120.222C12.2645 120.235 12.3511 120.247 12.4376 120.26C12.451 120.262 12.464 120.264 12.4774 120.266C12.4837 120.267 12.4903 120.268 12.4966 120.268C12.5056 120.27 12.5145 120.271 12.5236 120.273C13.5175 120.417 14.5118 120.559 15.5064 120.698C16.5468 120.843 17.5881 120.986 18.6293 121.127C17.9449 123.992 17.5308 126.904 17.6194 129.844C17.6713 131.57 17.918 133.312 18.3695 134.99C16.6678 137.766 14.2847 139.83 10.5624 139.83C10.3943 139.83 10.2242 139.826 10.051 139.817C9.46133 139.788 8.85166 139.715 8.23444 139.6C8.1194 140.276 8.00821 140.949 7.90102 141.619C8.68426 141.738 9.4718 141.799 10.2503 141.799C13.0678 141.799 15.7698 140.996 17.762 139.219C18.311 138.729 18.8088 138.185 19.2636 137.599C20.2941 140.036 21.82 142.227 23.8792 143.889C23.9268 143.927 23.975 143.965 24.0232 144.003C20.6922 145.056 17.5257 146.708 14.5231 148.415C12.2562 149.704 10.0434 151.088 7.78923 152.398C7.41732 152.614 6.99136 152.876 6.53414 153.152C6.53076 153.21 6.5249 153.271 6.52182 153.328Z" fill="#FBB578"/>
<path d="M10.2502 141.799C9.47178 141.799 8.68423 141.738 7.901 141.619C8.00818 140.949 8.11938 140.276 8.23441 139.599C8.85163 139.715 9.46131 139.788 10.051 139.817C10.2242 139.826 10.3942 139.83 10.5624 139.83C14.2847 139.83 16.6678 137.766 18.3695 134.99C18.6094 135.881 18.9066 136.755 19.2636 137.598C18.8088 138.185 18.3109 138.729 17.7619 139.219C15.7698 140.996 13.0678 141.799 10.2502 141.799Z" fill="#FECB79"/>
<path d="M52.7501 163.574C52.4781 163.247 52.1704 162.931 51.8146 162.632C49.4401 160.638 46.649 159.986 43.7689 159.986C41.6781 159.986 39.5399 160.33 37.4809 160.754C37.2165 160.808 36.9807 160.834 36.771 160.834C34.6666 160.834 35.1696 158.276 35.6694 156.716C36.4359 154.326 37.0261 151.71 36.738 149.181C36.7168 148.995 36.6897 148.815 36.6569 148.643C37.3663 148.786 38.0753 148.929 38.7793 149.077C38.8938 150.388 38.8078 151.714 38.655 153.059C38.5316 154.144 38.3139 155.263 37.9802 156.304C37.5748 157.568 36.9667 158.448 38.1309 158.448C38.3167 158.448 38.5473 158.426 38.8308 158.379C40.4953 158.104 42.2721 157.89 44.042 157.89C46.7993 157.89 49.5389 158.409 51.8064 160.023C52.3455 160.407 52.8434 160.827 53.3011 161.276C53.1411 162.043 52.9591 162.809 52.7501 163.574ZM6.4342 155.524C6.44344 154.804 6.47856 154.083 6.51952 153.366C6.51967 153.363 6.51999 153.361 6.51999 153.358C6.52045 153.348 6.52121 153.338 6.52183 153.328C6.52491 153.271 6.53076 153.21 6.53415 153.152C6.99137 152.876 7.41733 152.614 7.78923 152.398C10.0435 151.088 12.2562 149.704 14.5231 148.415C17.5257 146.708 20.6922 145.056 24.0232 144.003C24.7761 144.596 25.5726 145.104 26.404 145.546C22.8967 146.393 19.5825 147.926 16.4203 149.724C13.079 151.624 9.84325 153.741 6.4342 155.524Z" fill="#FECB79"/>
<path d="M42.7006 172.329C42.7399 169.351 39.159 168.406 35.905 168.406C34.8152 168.406 33.7612 168.512 32.8931 168.683C32.3387 168.793 31.687 168.896 31.0442 168.896C29.9245 168.896 28.832 168.583 28.3283 167.45C27.201 164.913 28.3785 161.788 26.1266 159.67C25.1801 158.78 24.0894 158.428 22.9478 158.428C20.2228 158.428 17.2088 160.439 15.1755 161.959C13.5923 163.142 12.195 164.642 10.8108 166.17C10.2627 165.649 9.75203 165.095 9.28726 164.509C9.71029 164.042 10.1404 163.585 10.589 163.154C13.3402 160.51 16.8367 157.747 20.5795 156.708C21.3946 156.483 22.2246 156.361 23.0348 156.361C25.3183 156.361 27.4459 157.323 28.6455 159.603C29.2617 160.774 29.7342 161.978 29.7637 163.318C29.7822 164.157 29.5498 166.873 31.0648 166.873C31.1155 166.873 31.1682 166.869 31.2227 166.863C32.0618 166.768 32.8491 166.497 33.6791 166.384C34.3804 166.288 35.2055 166.23 36.0833 166.23C38.7752 166.23 41.9596 166.782 43.5618 168.525C44.4953 169.541 44.8797 170.663 44.9069 171.813C44.1818 172.009 43.4461 172.182 42.7006 172.329Z" fill="#FECB79"/>
<path d="M155.467 126.569C155.85 128.659 155.544 130.811 155.128 132.894C154.712 134.977 154.184 137.054 154.118 139.178C154.077 140.499 154.229 141.845 154.68 143.094C154.883 143.657 155.632 145.484 156.385 145.505C157.255 145.531 156.537 143.464 156.412 143.051C155.626 140.448 155.684 137.567 156.506 134.981C156.479 137.544 156.88 140.111 157.685 142.545C158.077 143.728 158.667 144.945 159.622 145.778C160.057 146.158 160.653 146.686 160.913 145.972C161.108 145.435 160.779 144.9 160.551 144.446C159.127 141.61 158.423 138.465 158.619 135.288C159.231 138.66 160.598 141.892 162.59 144.68C162.772 144.934 162.973 145.196 163.261 145.314C163.55 145.432 163.947 145.341 164.056 145.049C164.149 144.797 164.002 144.526 163.862 144.297C163.115 143.066 162.337 141.708 161.933 140.317C161.526 138.917 161.636 137.225 161.758 135.782C162.105 137.524 162.701 139.217 163.521 140.792C163.91 141.538 164.386 142.294 165.131 142.684C165.345 142.796 165.652 142.853 165.791 142.656C165.846 142.578 165.859 142.479 165.86 142.384C165.871 141.731 165.473 141.154 165.152 140.586C164.582 139.574 164.214 138.448 164.077 137.295C163.945 136.192 164.19 135.693 164.914 134.922C165.61 134.183 166.252 133.388 166.77 132.514C167.345 131.544 167.696 130.527 167.905 129.425C168.092 128.43 168.627 127.547 168.701 126.507C168.791 125.232 168.768 123.95 168.749 122.672L155.467 126.569Z" fill="#F7A698"/>
<path d="M154.96 129.297C154.954 129.478 154.949 129.663 154.951 129.847C158.863 131.704 163.078 132.376 167.333 132.041C169.914 126.413 170.754 120.098 171.049 113.892C171.387 106.8 171.646 98.6192 169.78 91.7022C168.537 87.0937 167.707 82.3074 165.945 77.8358C165.517 76.7477 165.033 75.6784 164.475 74.6354C162.657 71.2351 158.382 63.8651 153.417 65.5014C151.296 66.2007 148.907 70.2306 148.099 72.1456C145.729 77.7597 147.953 84.1226 149.741 89.948C153.641 102.655 155.413 116.013 154.96 129.297Z" fill="#FCC185"/>
<path d="M149.746 70.2762C149.618 70.1008 149.471 69.948 149.317 69.8096C149.225 69.9622 149.137 70.1126 149.052 70.2616C149.141 70.348 149.229 70.4365 149.302 70.5364C150.332 72.3074 148.974 73.8667 147.493 74.0003C147.446 74.1867 147.404 74.373 147.366 74.5604C147.698 74.5604 148.042 74.5077 148.389 74.3876C150.089 73.7983 150.6 71.743 149.746 70.2762Z" fill="#FDDABA"/>
<path d="M153.374 80.5713C152.864 79.6174 153.097 78.4124 153.958 77.7616C154.993 76.9793 156.606 77.3395 157.341 78.3417C158.93 81.0733 154.837 83.3057 153.374 80.5713ZM157.786 78.0816C156.874 76.8381 155.248 76.5213 153.885 77.2015C152.646 77.8196 152.311 79.4625 152.849 80.6533C153.494 82.0832 154.94 82.7086 156.428 82.193C158.127 81.6035 158.639 79.5484 157.786 78.0816Z" fill="#FDDABA"/>
<path d="M152.533 91.7666C154.233 91.1771 154.744 89.122 153.891 87.6556C152.979 86.4121 151.354 86.0949 149.991 86.7751C149.57 86.9847 149.263 87.3178 149.049 87.7051C149.131 87.9713 149.212 88.2353 149.294 88.4999C149.414 88.0479 149.67 87.6329 150.063 87.3357C151.099 86.5533 152.711 86.9135 153.446 87.9153C154.873 90.3688 151.719 92.4159 150.002 90.8294C150.08 91.0929 150.159 91.3564 150.235 91.6205C150.904 91.9774 151.71 92.0524 152.533 91.7666Z" fill="#FDDABA"/>
<path d="M162.386 90.7477C161.875 89.7937 162.108 88.5886 162.969 87.9378C164.005 87.1555 165.617 87.5157 166.352 88.5181C167.941 91.2496 163.849 93.4819 162.386 90.7477ZM165.439 92.3693C167.139 91.7799 167.65 89.7247 166.797 88.2579C165.885 87.0143 164.259 86.6975 162.897 87.3778C161.657 87.9961 161.322 89.6389 161.86 90.8296C162.506 92.2596 163.952 92.8849 165.439 92.3693Z" fill="#FDDABA"/>
<path d="M155.661 108.662C155.168 107.989 154.464 107.597 153.707 107.478C153.733 107.653 153.757 107.828 153.782 108.003C154.351 108.143 154.877 108.46 155.216 108.921C156.028 110.317 155.355 111.581 154.309 112.12C154.332 112.328 154.351 112.536 154.373 112.744C156.015 112.122 156.501 110.107 155.661 108.662Z" fill="#FDDABA"/>
<path d="M157.077 100.668C156.567 99.7136 156.8 98.5087 157.661 97.8578C158.697 97.0755 160.31 97.4357 161.044 98.438C162.633 101.17 158.54 103.402 157.077 100.668ZM157.588 97.2977C156.349 97.916 156.015 99.5588 156.552 100.75C157.198 102.18 158.644 102.805 160.131 102.289C161.831 101.7 162.341 99.6446 161.489 98.1778C160.577 96.9342 158.952 96.6175 157.588 97.2977Z" fill="#FDDABA"/>
<path d="M163.513 113.912C163.002 112.958 163.236 111.752 164.097 111.102C165.132 110.32 166.745 110.68 167.48 111.682C169.069 114.414 164.976 116.646 163.513 113.912ZM167.925 111.422C167.012 110.178 165.387 109.862 164.024 110.541C162.785 111.16 162.45 112.803 162.988 113.994C163.633 115.424 165.079 116.049 166.567 115.534C168.266 114.944 168.778 112.889 167.925 111.422Z" fill="#FDDABA"/>
<path d="M168.741 100.309C169.223 101.376 170.152 101.995 171.211 102.025C171.203 101.84 171.197 101.655 171.188 101.471C170.459 101.46 169.73 101.094 169.266 100.227C168.755 99.2723 168.988 98.0675 169.849 97.4171C170.134 97.202 170.463 97.0808 170.805 97.0275C170.784 96.8684 170.759 96.7114 170.738 96.5527C170.412 96.6054 170.087 96.7017 169.777 96.8564C168.538 97.4747 168.203 99.1176 168.741 100.309Z" fill="#FDDABA"/>
<path d="M157.336 125.891C159.036 125.302 159.547 123.247 158.694 121.78C157.815 120.58 156.274 120.253 154.943 120.84C154.95 121.027 154.958 121.215 154.964 121.402C156.002 120.709 157.536 121.067 158.249 122.04C159.618 124.392 156.775 126.37 155.024 125.131C155.024 125.332 155.023 125.534 155.022 125.735C155.694 126.1 156.506 126.178 157.336 125.891Z" fill="#FDDABA"/>
<path d="M165.13 130.081C164.218 128.837 162.592 128.521 161.229 129.201C160.347 129.641 159.932 130.6 159.955 131.547C160.124 131.584 160.294 131.619 160.463 131.652C160.416 130.934 160.703 130.214 161.302 129.761C162.338 128.979 163.95 129.339 164.684 130.341C165.055 130.977 165.114 131.585 164.973 132.11C165.145 132.112 165.316 132.118 165.489 132.116C165.606 131.437 165.493 130.706 165.13 130.081Z" fill="#FDDABA"/>
<path d="M168.646 125.145C168.136 124.191 168.369 122.986 169.23 122.335C169.536 122.104 169.894 121.983 170.264 121.939C170.29 121.774 170.314 121.609 170.339 121.445C169.938 121.481 169.538 121.585 169.157 121.775C167.918 122.393 167.583 124.036 168.121 125.227C168.389 125.82 168.798 126.265 169.287 126.557C169.334 126.382 169.376 126.206 169.421 126.029C169.125 125.829 168.857 125.54 168.646 125.145Z" fill="#FDDABA"/>
<path d="M155.644 69.0019C156.289 70.4311 157.735 71.057 159.223 70.5409C160.019 70.2649 160.55 69.6657 160.807 68.9574C160.678 68.8014 160.546 68.6487 160.413 68.4983C159.919 70.203 157.283 71.0011 156.169 68.9198C155.658 67.9653 155.892 66.7603 156.752 66.1101C156.889 66.0074 157.035 65.9264 157.188 65.8617C156.994 65.765 156.798 65.6764 156.6 65.6021C155.432 66.2524 155.119 67.8387 155.644 69.0019Z" fill="#FDDABA"/>
<path d="M164.08 77.8931C164.568 78.9741 165.515 79.5934 166.591 79.6086C166.527 79.4201 166.456 79.2344 166.389 79.047C165.707 78.9948 165.04 78.6236 164.605 77.811C164.176 77.0085 164.278 76.0334 164.831 75.3549C164.746 75.1836 164.666 75.011 164.577 74.8408C163.799 75.6074 163.633 76.9021 164.08 77.8931Z" fill="#FDDABA"/>
<path d="M54.4931 21.6908C53.4688 22.6252 53.6417 24.3637 54.6257 25.3361C55.6101 26.309 57.1607 26.5965 58.5639 26.4057C59.9671 26.2146 61.2657 25.6105 62.538 25.0145C61.8361 26.1325 61.1287 27.5575 61.8572 28.6598C62.3717 29.4383 63.4213 29.7144 64.3829 29.7881C66.7107 29.9669 69.099 29.3047 70.9629 27.9634C70.512 31.4995 71.823 35.2041 74.4284 37.7574C75.7932 39.0944 77.6093 40.1543 79.5657 40.1309C81.1606 40.112 82.6416 39.3877 84.0491 38.6723C84.7087 38.337 85.4003 37.971 85.7773 37.3554C86.0816 36.8588 86.1403 36.2628 86.1718 35.6887C86.3593 32.2644 85.8344 28.806 84.636 25.5729C84.0981 24.1213 83.3865 22.6644 82.1488 21.6766C80.8135 20.6102 79.0333 20.2197 77.3122 19.9637C69.5788 18.8141 61.5176 19.7404 54.2929 22.6105L54.4931 21.6908Z" fill="#4F4A7A"/>
<path d="M125.392 17.3089C124.792 21.0184 126.066 24.9826 128.715 27.6484C129.416 28.3536 130.244 28.9897 131.219 29.1853C132.193 29.382 133.331 29.0295 133.806 28.1558C134.557 32.0223 137.954 35.2254 141.857 35.7496C143.863 36.0185 146.175 35.4754 147.233 33.7498C147.917 32.6318 147.949 31.2296 147.75 29.9339C147.277 26.8412 145.635 24.0427 143.708 21.578C142.967 20.6294 142.172 19.7101 141.218 18.9751C139.292 17.4904 136.847 16.8504 134.439 16.5065C131.177 16.0408 127.577 16.142 124.956 18.1406L125.392 17.3089Z" fill="#FEFEFE"/>
<path d="M157.568 34.525C156.52 32.4405 154.48 32.4829 152.385 32.4736C149.103 32.4589 145.829 32.7784 142.587 33.2695C142.819 33.4836 142.975 33.7589 143.058 34.0621C145.151 33.7552 147.245 33.5373 149.358 33.4124C151.383 33.2929 155.661 32.6349 156.828 34.9568C157.077 35.4501 157.815 35.0166 157.568 34.525Z" fill="#FFDA57"/>
<path d="M125.225 37.978C125.299 38.1676 125.346 38.3696 125.346 38.5832V38.9862C125.508 39.0341 125.682 38.99 125.77 38.7831C126.308 37.5144 127.932 37.2234 128.73 38.2621C128.748 37.9241 128.825 37.6292 128.958 37.3532C127.81 36.46 126.064 36.6029 125.225 37.978Z" fill="#FFDA57"/>
<path d="M118.041 30.6707C114.09 30.6707 110.875 34.0976 110.875 38.3102C110.875 42.5227 114.09 45.9502 118.041 45.9502C121.992 45.9502 125.206 42.5227 125.206 38.3102C125.206 34.0976 121.992 30.6707 118.041 30.6707ZM118.041 46.734C113.657 46.734 110.091 42.9551 110.091 38.3102C110.091 33.6652 113.657 29.8862 118.041 29.8862C122.424 29.8862 125.99 33.6652 125.99 38.3102C125.99 42.9551 122.424 46.734 118.041 46.734Z" fill="#FFDA57"/>
<path d="M136.278 30.3279C132.327 30.3279 129.112 33.7555 129.112 37.9679C129.112 42.1805 132.327 45.6074 136.278 45.6074C140.229 45.6074 143.443 42.1805 143.443 37.9679C143.443 33.7555 140.229 30.3279 136.278 30.3279ZM136.278 46.3919C131.894 46.3919 128.328 42.613 128.328 37.9679C128.328 33.323 131.894 29.5439 136.278 29.5439C140.661 29.5439 144.228 33.323 144.228 37.9679C144.228 42.613 140.661 46.3919 136.278 46.3919Z" fill="#FFDA57"/>
</svg>
