<svg width="53" height="40" viewBox="0 0 53 40" fill="none" xmlns="http://www.w3.org/2000/svg">
<path d="M22.8525 0.460669C26.7441 -0.452171 31.0381 -0.00341005 34.8102 1.76267C36.6907 2.65089 38.4461 3.84817 39.9718 5.30131C41.494 6.75703 42.8014 8.46587 43.7935 10.355C45.7951 14.1256 46.5405 18.5866 45.8537 22.8549C45.8073 23.1209 45.7738 23.3894 45.7156 23.6535L45.5442 24.4463C45.4056 24.9689 45.2702 25.4934 45.094 26.0059C44.752 27.0321 44.3477 28.0424 43.8433 29.0034C43.3429 29.966 42.7641 30.8878 42.1213 31.7621C41.4695 32.6296 40.7544 33.4478 39.9869 34.2133C39.2069 34.9657 38.3686 35.6582 37.4865 36.2899C36.6007 36.917 35.6614 37.4673 34.6895 37.9489C33.7166 38.4301 32.6988 38.815 31.6634 39.1301C30.6271 39.4425 29.5688 39.6873 28.4955 39.8183C24.2118 40.4054 19.768 39.5561 16.0438 37.4675C14.1773 36.4321 12.501 35.083 11.0789 33.5289C9.66604 31.9652 8.50208 30.1877 7.66263 28.2832C5.98245 24.4709 5.63833 20.1657 6.6424 16.2971L6.61702 17.045L6.60239 17.4165L6.60704 17.7887C6.61131 18.0366 6.61047 18.2836 6.61938 18.5299L6.67098 19.2679C6.68211 19.5129 6.71206 19.7571 6.74232 20.0006C6.77403 20.2442 6.7946 20.4874 6.83485 20.7286C6.92463 21.21 6.98827 21.6916 7.11113 22.163C7.53382 24.0592 8.2546 25.8616 9.19945 27.5095C9.2544 27.6149 9.31812 27.7153 9.38176 27.8155L9.57055 28.1173C9.69935 28.3165 9.81269 28.524 9.95636 28.7134L10.3671 29.2911L10.4695 29.4353L10.5808 29.573L10.8029 29.8484L11.0244 30.1234C11.0974 30.2154 11.1702 30.3074 11.2514 30.3932L11.7225 30.9174C11.8741 31.0964 12.0479 31.2557 12.2136 31.4214C12.3819 31.5846 12.5442 31.7532 12.716 31.9119C13.4083 32.5433 14.1393 33.1237 14.9041 33.6493C15.6697 34.1755 16.4845 34.62 17.312 35.0243C18.141 35.4282 19.0061 35.7513 19.8858 36.011C20.7647 36.2725 21.6587 36.4828 22.5662 36.6003C23.472 36.7236 24.3844 36.7777 25.2951 36.7763C26.2062 36.7636 27.114 36.6804 28.0097 36.5331C28.9057 36.3869 29.7892 36.1725 30.6492 35.8901C31.5085 35.6077 32.3512 35.2708 33.1517 34.852C33.9553 34.4406 34.7353 33.9817 35.4682 33.4532C36.1988 32.922 36.891 32.339 37.541 31.7098C38.1852 31.0747 38.7855 30.397 39.3342 29.6795C39.8761 28.9564 40.3548 28.1889 40.788 27.3964C41.2262 26.6058 41.5785 25.7696 41.8833 24.918C42.0407 24.493 42.1612 24.0562 42.2882 23.6211L42.4496 22.9604C42.5073 22.7408 42.5412 22.5161 42.5887 22.2939C42.756 21.4019 42.8653 20.4961 42.8941 19.5853C42.9167 18.6749 42.8875 17.7607 42.7848 16.852C42.6885 15.9418 42.4943 15.0442 42.2579 14.1581C42.1451 13.7124 41.9943 13.2786 41.8501 12.8413L41.6026 12.1967C41.5233 11.98 41.4197 11.774 41.3298 11.5615C40.9441 10.7251 40.5243 9.89622 40.0111 9.12186C39.893 8.92095 39.7507 8.73758 39.6203 8.54468L39.4208 8.2581C39.353 8.16337 39.2793 8.07351 39.2087 7.98083C39.0636 7.7986 38.9275 7.60836 38.7781 7.4288L38.3246 6.89361C38.174 6.71405 38.0052 6.5517 37.8463 6.379L37.6043 6.12344L37.483 5.99547L37.3546 5.87543C37.0105 5.55678 36.6741 5.22578 36.3061 4.93166C35.5946 4.31088 34.8087 3.78072 34.0049 3.27335C32.3776 2.29298 30.593 1.52792 28.7066 1.063C28.2378 0.930155 27.758 0.853942 27.2785 0.754175C27.0384 0.706922 26.7955 0.682071 26.5529 0.644801C26.3103 0.609437 26.0668 0.573391 25.8219 0.556319L25.0855 0.488335C24.8392 0.472939 24.5924 0.469053 24.3447 0.458764L23.9726 0.44588C23.8488 0.445118 23.7249 0.45076 23.6007 0.452132L22.8525 0.460669Z" fill="#6D9DC5"/>
<path fill-rule="evenodd" clip-rule="evenodd" d="M52.4565 26.0567C49.2419 25.332 43.9166 26.6233 40.5719 28.2474C37.227 29.8715 32.8014 32.3038 29.595 31.9248C26.8171 31.5962 16.4957 25.3106 13.7858 23.6357C13.5279 23.4765 13.6029 23.08 13.9018 23.0293C15.4105 22.7723 17.4459 23.1256 19.7996 24.3623C22.5823 25.8243 26.6107 27.5324 29.7262 27.9008C31.621 28.1248 35.4909 27.0922 34.4458 25.8973C32.956 24.194 25.7495 24.5534 23.7288 22.262C23.5633 22.0746 23.6926 21.7783 23.9423 21.7755C26.8681 21.7405 30.2729 21.8522 33.1864 21.3223C38.1522 20.4189 39.3231 18.3953 43.401 19.3209C47.4786 20.2464 52.4565 26.0567 52.4565 26.0567Z" fill="#A0BDD8"/>
<path fill-rule="evenodd" clip-rule="evenodd" d="M0 13.9951C3.21487 14.7202 8.53986 13.4288 11.8847 11.8047C15.2294 10.1803 19.655 7.74826 22.8614 8.12744C25.6393 8.45593 35.9607 14.7415 38.6707 16.4164C38.9286 16.5756 38.8535 16.9721 38.5547 17.0228C37.046 17.2798 35.0108 16.9266 32.6568 15.6898C29.8741 14.2278 25.8459 12.5197 22.7305 12.1514C20.8358 11.9274 16.9655 12.9599 18.0109 14.1549C19.5005 15.8581 26.7069 15.4988 28.7277 17.7901C28.8931 17.9775 28.7639 18.2738 28.5142 18.2767C25.5884 18.3117 22.1836 18.1999 19.2702 18.7299C14.3045 19.6333 13.1334 21.6569 9.05546 20.7312C4.97783 19.8057 0 13.9951 0 13.9951Z" fill="#BACFE4"/>
<path d="M14.2324 4.45618C14.2324 6.19109 12.71 7.42548 12.3868 7.66792C12.3513 7.69452 12.3026 7.69452 12.2671 7.66792C11.944 7.42548 10.4216 6.19109 10.4216 4.45618C10.4216 3.40387 11.2747 2.55078 12.327 2.55078C13.3793 2.55078 14.2324 3.40387 14.2324 4.45618Z" fill="#D1DEED"/>
<path d="M13.4995 4.45612C13.4995 5.10358 12.9746 5.62847 12.3271 5.62847C11.6796 5.62847 11.1547 5.10358 11.1547 4.45612C11.1547 3.80859 11.6796 3.28369 12.3271 3.28369C12.9746 3.28369 13.4995 3.80859 13.4995 4.45612Z" fill="#FEFEFE"/>
<path d="M9.12307 9.92908C9.12307 10.6231 8.51411 11.1168 8.38485 11.2139C8.37067 11.2244 8.35116 11.2244 8.33698 11.2139C8.20772 11.1168 7.59875 10.6231 7.59875 9.92908C7.59875 9.50821 7.93997 9.16699 8.36092 9.16699C8.78178 9.16699 9.12307 9.50821 9.12307 9.92908Z" fill="#D1DEED"/>
<path d="M8.82988 9.92892C8.82988 10.188 8.61991 10.398 8.36093 10.398C8.10195 10.398 7.89197 10.188 7.89197 9.92892C7.89197 9.66994 8.10195 9.45996 8.36093 9.45996C8.61991 9.45996 8.82988 9.66994 8.82988 9.92892Z" fill="#FEFEFE"/>
<path d="M19.4008 1.09754C19.4008 1.79156 18.7918 2.28528 18.6626 2.38231C18.6484 2.3929 18.6289 2.3929 18.6147 2.38231C18.4854 2.28528 17.8765 1.79156 17.8765 1.09754C17.8765 0.67667 18.2177 0.335449 18.6386 0.335449C19.0595 0.335449 19.4008 0.67667 19.4008 1.09754Z" fill="#D1DEED"/>
<path d="M19.1076 1.09787C19.1076 1.35692 18.8976 1.5669 18.6386 1.5669C18.3796 1.5669 18.1697 1.35692 18.1697 1.09787C18.1697 0.838884 18.3796 0.628906 18.6386 0.628906C18.8976 0.628906 19.1076 0.838884 19.1076 1.09787Z" fill="#FEFEFE"/>
</svg>
