<svg width="200" height="153" viewBox="0 0 200 153" fill="none" xmlns="http://www.w3.org/2000/svg">
<path d="M87.1295 1.75638C101.967 -1.72398 118.339 -0.0130014 132.72 6.72049C139.89 10.107 146.583 14.6718 152.4 20.2122C158.204 25.7624 163.188 32.2776 166.971 39.4801C174.602 53.8564 177.444 70.8648 174.826 87.1385C174.649 88.1527 174.521 89.1764 174.299 90.1833L173.646 93.2057C173.117 95.1985 172.601 97.1981 171.929 99.152C170.625 103.065 169.084 106.916 167.161 110.58C165.253 114.251 163.046 117.765 160.595 121.099C158.11 124.406 155.384 127.526 152.458 130.444C149.483 133.313 146.288 135.953 142.924 138.362C139.547 140.753 135.966 142.851 132.26 144.687C128.551 146.521 124.67 147.989 120.723 149.191C116.771 150.382 112.737 151.315 108.645 151.815C92.3121 154.053 75.3694 150.815 61.1701 142.851C54.0537 138.904 47.6625 133.76 42.2404 127.835C36.8538 121.873 32.4159 115.096 29.2154 107.835C22.8094 93.2998 21.4974 76.8854 25.3256 62.1355L25.2288 64.987L25.173 66.4037L25.1908 67.8226C25.207 68.7676 25.2038 69.7097 25.2378 70.6486L25.4346 73.4623C25.477 74.3966 25.5912 75.3276 25.7066 76.256C25.8274 77.1844 25.9059 78.112 26.0593 79.0314C26.4016 80.8671 26.6443 82.7033 27.1127 84.5006C28.7243 91.7301 31.4724 98.6019 35.0748 104.885C35.2843 105.287 35.5272 105.67 35.7699 106.052L36.4897 107.202C36.9808 107.962 37.4129 108.753 37.9606 109.475L39.5266 111.677L39.9172 112.227L40.3414 112.752L41.1882 113.802L42.0326 114.851C42.311 115.202 42.5888 115.552 42.8983 115.879L44.6944 117.878C45.2724 118.561 45.9352 119.168 46.5666 119.8C47.2083 120.422 47.8272 121.065 48.4822 121.67C51.1219 124.077 53.9089 126.29 56.825 128.294C59.7436 130.3 62.8503 131.995 66.0052 133.536C69.1662 135.076 72.4644 136.308 75.8184 137.299C79.1694 138.295 82.578 139.097 86.0377 139.545C89.4914 140.015 92.97 140.222 96.4422 140.216C99.9162 140.168 103.377 139.851 106.792 139.289C110.208 138.731 113.577 137.914 116.856 136.837C120.132 135.761 123.345 134.476 126.397 132.88C129.461 131.311 132.435 129.561 135.229 127.546C138.015 125.521 140.654 123.298 143.132 120.899C145.588 118.478 147.877 115.894 149.969 113.159C152.035 110.401 153.86 107.475 155.512 104.454C157.183 101.439 158.526 98.2512 159.688 95.0044C160.288 93.3838 160.747 91.7188 161.232 90.0595L161.847 87.5407C162.067 86.7035 162.196 85.8466 162.377 84.9995C163.015 81.5988 163.432 78.1451 163.542 74.6723C163.628 71.2013 163.516 67.716 163.125 64.2513C162.758 60.7811 162.017 57.3588 161.116 53.9802C160.686 52.2808 160.111 50.6271 159.561 48.9597L158.617 46.5022C158.315 45.6761 157.92 44.8906 157.577 44.0804C156.107 40.8912 154.507 37.7311 152.55 34.7787C152.1 34.0127 151.557 33.3136 151.06 32.5781L150.299 31.4855C150.041 31.1243 149.76 30.7817 149.49 30.4283C148.937 29.7335 148.418 29.0082 147.849 28.3236L146.12 26.2831C145.545 25.5985 144.902 24.9795 144.296 24.3211L143.373 23.3467L142.911 22.8588L142.421 22.4011C141.109 21.1862 139.827 19.9242 138.424 18.8028C135.711 16.436 132.715 14.4147 129.65 12.4802C123.446 8.7424 116.642 5.82546 109.449 4.05288C107.662 3.54638 105.833 3.25581 104.004 2.87543C103.089 2.69526 102.163 2.60052 101.238 2.45842C100.313 2.32359 99.3847 2.18616 98.4508 2.12106L95.6431 1.86186C94.7042 1.80316 93.763 1.78835 92.8186 1.74912L91.3999 1.7C90.928 1.69709 90.4555 1.7186 89.9822 1.72383L87.1295 1.75638Z" fill="#6D9DC5"/>
<path fill-rule="evenodd" clip-rule="evenodd" d="M200 99.3485C187.744 96.5853 167.44 101.509 154.688 107.701C141.935 113.893 125.061 123.167 112.836 121.721C102.245 120.469 62.893 96.5037 52.5609 90.118C51.5776 89.511 51.8635 87.999 53.0032 87.8058C58.7553 86.8259 66.5158 88.1731 75.4897 92.8882C86.0993 98.4625 101.458 104.975 113.336 106.379C120.561 107.233 135.316 103.296 131.331 98.7406C125.651 92.2465 98.1747 93.6167 90.4704 84.8804C89.8395 84.1659 90.3323 83.0364 91.2843 83.0256C102.439 82.8919 115.421 83.318 126.529 81.2975C145.462 77.8532 149.926 70.1378 165.474 73.667C181.021 77.1956 200 99.3485 200 99.3485Z" fill="#A0BDD8"/>
<path fill-rule="evenodd" clip-rule="evenodd" d="M0 53.3572C12.2573 56.1218 32.5598 51.1981 45.3125 45.006C58.0649 38.8127 74.9382 29.5401 87.1632 30.9857C97.7545 32.2382 137.107 56.2032 147.439 62.5889C148.422 63.1959 148.136 64.7075 146.997 64.9011C141.244 65.8809 133.485 64.5341 124.51 59.8187C113.9 54.2444 98.542 47.732 86.6642 46.3279C79.4402 45.4738 64.6839 49.4104 68.6696 53.9666C74.3491 60.4603 101.825 59.0902 109.529 67.8264C110.16 68.541 109.667 69.6705 108.715 69.6815C97.5604 69.8149 84.579 69.3889 73.471 71.4093C54.5386 74.854 50.0735 82.5691 34.5256 79.0399C18.9789 75.5113 0 53.3572 0 53.3572Z" fill="#BACFE4"/>
<path d="M54.2637 16.9912C54.2637 23.6059 48.4592 28.3122 47.2268 29.2366C47.0917 29.338 46.906 29.338 46.7706 29.2366C45.5388 28.3122 39.7343 23.6059 39.7343 16.9912C39.7343 12.9791 42.9869 9.72656 46.999 9.72656C51.0109 9.72656 54.2637 12.9791 54.2637 16.9912Z" fill="#D1DEED"/>
<path d="M51.4691 16.9896C51.4691 19.4582 49.4679 21.4594 46.999 21.4594C44.5302 21.4594 42.5289 19.4582 42.5289 16.9896C42.5289 14.5208 44.5302 12.5195 46.999 12.5195C49.4679 12.5195 51.4691 14.5208 51.4691 16.9896Z" fill="#FEFEFE"/>
<path d="M34.7833 37.8568C34.7833 40.5029 32.4615 42.3853 31.9687 42.7552C31.9146 42.7956 31.8402 42.7956 31.7862 42.7552C31.2933 42.3853 28.9716 40.5029 28.9716 37.8568C28.9716 36.2521 30.2725 34.9512 31.8774 34.9512C33.4821 34.9512 34.7833 36.2521 34.7833 37.8568Z" fill="#D1DEED"/>
<path d="M33.6654 37.8573C33.6654 38.845 32.8648 39.6456 31.8774 39.6456C30.89 39.6456 30.0894 38.845 30.0894 37.8573C30.0894 36.8699 30.89 36.0693 31.8774 36.0693C32.8648 36.0693 33.6654 36.8699 33.6654 37.8573Z" fill="#FEFEFE"/>
<path d="M73.969 4.18489C73.969 6.83098 71.6473 8.71338 71.1544 9.0833C71.1004 9.12369 71.026 9.12369 70.9719 9.0833C70.4791 8.71338 68.1573 6.83098 68.1573 4.18489C68.1573 2.58026 69.4582 1.2793 71.0632 1.2793C72.6678 1.2793 73.969 2.58026 73.969 4.18489Z" fill="#D1DEED"/>
<path d="M72.8512 4.18545C72.8512 5.17316 72.0506 5.97373 71.0632 5.97373C70.0758 5.97373 69.2752 5.17316 69.2752 4.18545C69.2752 3.19804 70.0758 2.39746 71.0632 2.39746C72.0506 2.39746 72.8512 3.19804 72.8512 4.18545Z" fill="#FEFEFE"/>
</svg>
