<svg width="197" height="150" viewBox="0 0 197 150" fill="none" xmlns="http://www.w3.org/2000/svg">
<path d="M85.6971 1.72751C100.291 -1.69564 116.393 -0.0127877 130.538 6.61001C137.591 9.94084 144.173 14.4306 149.894 19.8799C155.603 25.3389 160.505 31.747 164.226 38.8311C171.732 52.971 174.527 69.6998 171.951 85.706C171.777 86.7035 171.652 87.7104 171.434 88.7007L170.791 91.6734C170.271 93.6335 169.763 95.6002 169.103 97.522C167.82 101.37 166.304 105.159 164.413 108.763C162.536 112.373 160.366 115.829 157.955 119.108C155.511 122.361 152.829 125.429 149.951 128.3C147.026 131.121 143.883 133.718 140.575 136.087C137.253 138.439 133.73 140.502 130.086 142.308C126.437 144.113 122.621 145.556 118.738 146.738C114.852 147.909 110.883 148.827 106.858 149.319C90.7945 151.52 74.1303 148.335 60.1645 140.503C53.165 136.62 46.8789 131.561 41.546 125.733C36.2479 119.869 31.883 113.204 28.7351 106.062C22.4344 91.766 21.144 75.6215 24.9092 61.114L24.8141 63.9187L24.7592 65.312L24.7766 66.7076C24.7926 67.6371 24.7895 68.5637 24.8229 69.4871L25.0164 72.2546C25.0581 73.1735 25.1705 74.0892 25.2839 75.0024C25.4028 75.9156 25.48 76.8279 25.6309 77.7322C25.9676 79.5376 26.2062 81.3437 26.667 83.1114C28.2521 90.2221 30.955 96.9809 34.4982 103.161C34.7042 103.556 34.9432 103.932 35.1818 104.308L35.8898 105.44C36.3728 106.187 36.7978 106.965 37.3366 107.675L38.8768 109.842L39.2609 110.382L39.6782 110.899L40.5111 111.931L41.3416 112.963C41.6154 113.308 41.8887 113.653 42.193 113.974L43.9596 115.94C44.5281 116.612 45.18 117.209 45.8011 117.83C46.4322 118.442 47.041 119.075 47.6852 119.67C50.2815 122.037 53.0227 124.214 55.8908 126.185C58.7615 128.158 61.8171 129.825 64.9201 131.341C68.0291 132.856 71.2731 134.067 74.5719 135.041C77.8679 136.022 81.2204 136.811 84.6233 137.251C88.0201 137.713 91.4416 137.916 94.8567 137.911C98.2736 137.863 101.678 137.552 105.036 136.999C108.396 136.451 111.71 135.647 114.935 134.588C118.157 133.529 121.317 132.265 124.319 130.695C127.333 129.152 130.258 127.431 133.006 125.45C135.746 123.458 138.341 121.271 140.779 118.912C143.195 116.53 145.446 113.989 147.504 111.298C149.536 108.587 151.331 105.708 152.955 102.737C154.599 99.7719 155.92 96.6359 157.063 93.4426C157.653 91.8486 158.105 90.2109 158.581 88.579L159.186 86.1016C159.402 85.2781 159.53 84.4353 159.708 83.6021C160.335 80.2573 160.745 76.8605 160.853 73.4447C160.938 70.0307 160.828 66.6027 160.443 63.195C160.082 59.7819 159.354 56.4159 158.467 53.0928C158.044 51.4213 157.479 49.7948 156.938 48.1548L156.01 45.7377C155.713 44.9252 155.324 44.1526 154.987 43.3558C153.54 40.219 151.966 37.1108 150.042 34.207C149.599 33.4536 149.065 32.7659 148.576 32.0425L147.828 30.9679C147.574 30.6126 147.298 30.2757 147.033 29.9281C146.489 29.2447 145.978 28.5314 145.418 27.858L143.717 25.851C143.153 25.1777 142.52 24.5689 141.924 23.9212L141.016 22.9629L140.562 22.483L140.08 22.0329C138.789 20.8379 137.528 19.5967 136.148 18.4937C133.48 16.1658 130.533 14.1777 127.519 12.2751C121.416 8.59868 114.724 5.72969 107.65 3.98625C105.892 3.48808 104.093 3.20228 102.295 2.82816C101.394 2.65096 100.483 2.55776 99.5734 2.418C98.6637 2.28539 97.7508 2.15022 96.8322 2.0862L94.0708 1.83126C93.1473 1.77352 92.2216 1.75895 91.2927 1.72036L89.8973 1.67205C89.4332 1.66919 88.9685 1.69035 88.5029 1.6955L85.6971 1.72751Z" fill="#336691"/>
<path fill-rule="evenodd" clip-rule="evenodd" d="M196.712 97.7132C184.657 94.9955 164.687 99.8379 152.145 105.928C139.601 112.019 123.005 121.14 110.981 119.718C100.564 118.486 61.8591 94.9151 51.6968 88.6345C50.7296 88.0374 51.0109 86.5503 52.1318 86.3602C57.7894 85.3965 65.4223 86.7215 74.2487 91.3591C84.6839 96.8418 99.7901 103.247 111.473 104.628C118.579 105.468 133.091 101.596 129.172 97.1153C123.585 90.728 96.5607 92.0756 88.983 83.483C88.3625 82.7802 88.8473 81.6692 89.7836 81.6587C100.755 81.5272 113.523 81.9462 124.449 79.959C143.071 76.5713 147.462 68.9827 162.754 72.4539C178.045 75.9245 196.712 97.7132 196.712 97.7132Z" fill="#6D9DC5"/>
<path fill-rule="evenodd" clip-rule="evenodd" d="M0 52.4806C12.0558 55.1998 32.0245 50.357 44.5676 44.2667C57.1103 38.1752 73.7062 29.055 85.7302 30.4769C96.1475 31.7088 134.853 55.2798 145.015 61.5605C145.982 62.1575 145.701 63.6443 144.58 63.8347C138.922 64.7984 131.291 63.4737 122.463 58.8359C112.028 53.3532 96.922 46.9479 85.2395 45.5668C78.1343 44.7268 63.6205 48.5987 67.5407 53.0799C73.1269 59.4669 100.151 58.1193 107.729 66.7119C108.349 67.4147 107.865 68.5257 106.928 68.5365C95.9565 68.6677 83.1885 68.2487 72.2631 70.236C53.642 73.624 49.2503 81.2123 33.958 77.7411C18.6669 74.2705 0 52.4806 0 52.4806Z" fill="#6D9DC5"/>
<path d="M53.3717 16.7102C53.3717 23.2161 47.6626 27.8451 46.4505 28.7542C46.3176 28.854 46.1349 28.854 46.0017 28.7542C44.7902 27.8451 39.0811 23.2161 39.0811 16.7102C39.0811 12.764 42.2802 9.56494 46.2264 9.56494C50.1723 9.56494 53.3717 12.764 53.3717 16.7102Z" fill="#3066BE"/>
<path d="M50.623 16.7101C50.623 19.1381 48.6546 21.1064 46.2264 21.1064C43.7981 21.1064 41.8298 19.1381 41.8298 16.7101C41.8298 14.2819 43.7981 12.3135 46.2264 12.3135C48.6546 12.3135 50.623 14.2819 50.623 16.7101Z" fill="#FEFEFE"/>
<path d="M34.2115 37.2338C34.2115 39.8364 31.9279 41.6879 31.4431 42.0517C31.39 42.0914 31.3168 42.0914 31.2637 42.0517C30.7789 41.6879 28.4953 39.8364 28.4953 37.2338C28.4953 35.6556 29.7749 34.376 31.3534 34.376C32.9316 34.376 34.2115 35.6556 34.2115 37.2338Z" fill="#3066BE"/>
<path d="M33.112 37.2337C33.112 38.2052 32.3246 38.9926 31.3534 38.9926C30.3822 38.9926 29.5948 38.2052 29.5948 37.2337C29.5948 36.2625 30.3822 35.4751 31.3534 35.4751C32.3246 35.4751 33.112 36.2625 33.112 37.2337Z" fill="#FEFEFE"/>
<path d="M72.753 4.11661C72.753 6.7192 70.4694 8.57066 69.9847 8.9345C69.9315 8.97423 69.8583 8.97423 69.8052 8.9345C69.3204 8.57066 67.0368 6.7192 67.0368 4.11661C67.0368 2.53837 68.3164 1.25879 69.8949 1.25879C71.4732 1.25879 72.753 2.53837 72.753 4.11661Z" fill="#3066BE"/>
<path d="M71.6535 4.11651C71.6535 5.08798 70.8661 5.87539 69.8949 5.87539C68.9237 5.87539 68.1363 5.08798 68.1363 4.11651C68.1363 3.14533 68.9237 2.35791 69.8949 2.35791C70.8661 2.35791 71.6535 3.14533 71.6535 4.11651Z" fill="#FEFEFE"/>
</svg>
